<?xml version="1.0" encoding="utf-8" standalone="no"?>
<!DOCTYPE svg PUBLIC "-//W3C//DTD SVG 1.1//EN"
  "http://www.w3.org/Graphics/SVG/1.1/DTD/svg11.dtd">
<!-- Created with matplotlib (http://matplotlib.org/) -->
<svg height="576pt" version="1.1" viewBox="0 0 864 576" width="864pt" xmlns="http://www.w3.org/2000/svg" xmlns:xlink="http://www.w3.org/1999/xlink">
 <defs>
  <style type="text/css">
*{stroke-linecap:butt;stroke-linejoin:round;stroke-miterlimit:100000;}
  </style>
 </defs>
 <g id="figure_1">
  <g id="patch_1">
   <path d="M 0 576 
L 864 576 
L 864 0 
L 0 0 
z
" style="fill:#f1e4f3;"/>
  </g>
  <g id="axes_1">
   <g id="patch_2">
    <path d="M 108 504 
L 777.6 504 
L 777.6 57.6 
L 108 57.6 
L 108 504 
z
" style="fill:none;"/>
   </g>
   <g id="line2d_1">
    <path clip-path="url(#p55286ebfea)" d="M 109.757197 410.411793 
L 209.990399 410.411793 
L 212.901572 412.516731 
L 279.146977 412.516731 
L 281.535436 414.790064 
L 293.176164 414.790064 
L 295.443996 417.742727 
L 325.082686 417.742727 
L 327.048952 419.939517 
L 334.712972 419.939517 
L 336.578717 422.228159 
L 338.424356 425.69415 
L 347.350989 425.69415 
L 349.076002 427.998101 
L 357.399502 427.998101 
L 359.003889 429.662946 
L 362.152349 429.662946 
L 363.696422 431.783193 
L 373.942014 431.783193 
L 375.325252 436.167794 
L 378.031255 436.167794 
L 380.654725 440.530757 
L 381.935057 440.530757 
L 383.194766 445.351394 
L 384.434404 450.750839 
L 385.654728 452.917012 
L 386.856662 452.917012 
L 388.041264 457.203432 
L 389.209686 460.714399 
L 390.363134 462.91119 
L 391.502835 467.258844 
L 392.629996 471.112084 
L 393.745769 471.333294 
L 397.034631 475.711487 
L 402.352009 475.711487 
L 403.3906 474.330888 
L 404.420575 473.72169 
L 405.441934 473.72169 
L 406.454677 472.249015 
L 407.458803 471.38981 
L 408.454314 467.845106 
L 410.419486 465.425535 
L 411.389147 459.722355 
L 412.350193 458.221821 
L 413.302622 453.63633 
L 414.246436 450.108304 
L 417.026178 438.357225 
L 417.935527 436.747624 
L 418.836259 431.864168 
L 419.728375 431.864168 
L 420.611875 427.670341 
L 421.486759 426.509114 
L 422.353027 426.509114 
L 425.731936 416.447515 
L 426.555122 414.362594 
L 427.369693 414.362594 
L 428.175647 412.50995 
L 428.972986 408.949047 
L 429.761708 410.025281 
L 430.541814 411.690126 
L 432.076177 406.215238 
L 432.830434 405.859891 
L 433.576075 403.819011 
L 434.3131 404.729009 
L 435.761302 401.671091 
L 436.472237 400.576212 
L 437.173727 401.919702 
L 437.86533 402.202375 
L 438.54708 403.551203 
L 439.219439 401.607374 
L 439.883231 403.392341 
L 440.539591 403.392341 
L 441.835767 398.000757 
L 442.478895 397.608215 
L 443.121105 392.670125 
L 443.764233 392.670125 
L 444.410093 390.065529 
L 445.060409 389.194633 
L 445.716769 389.194633 
L 446.380561 388.899411 
L 447.05292 388.899411 
L 447.73467 387.357361 
L 448.426273 387.598472 
L 449.838698 382.158161 
L 450.558491 384.35864 
L 451.2869 384.35864 
L 452.023925 381.654493 
L 452.769566 381.654493 
L 453.523823 380.967034 
L 454.286697 378.766555 
L 455.058186 378.766555 
L 455.838292 375.817147 
L 456.627014 369.676435 
L 457.424353 369.676435 
L 459.044878 358.864748 
L 459.868064 351.862462 
L 460.699867 349.272291 
L 461.540286 346.007244 
L 463.246973 340.155596 
L 464.113241 334.680072 
L 464.988125 331.063647 
L 466.763741 309.993861 
L 468.573822 288.069796 
L 469.491786 278.719834 
L 470.418367 259.77001 
L 471.353564 253.087788 
L 472.297378 241.282698 
L 473.249807 231.852574 
L 474.210853 217.892238 
L 475.180514 206.494954 
L 476.158792 196.591356 
L 478.141197 159.720266 
L 479.145323 155.081747 
L 480.158066 143.653846 
L 481.179425 138.98471 
L 482.2094 124.347911 
L 485.350861 103.631167 
L 486.414587 98.824254 
L 487.486082 92.187957 
L 488.565369 87.53413 
L 489.652755 85.245488 
L 490.74879 80.744747 
L 491.854231 78.532649 
L 492.970004 73.771661 
L 494.097165 71.36055 
L 495.236866 71.36055 
L 497.558736 66.829192 
L 498.743338 62.435612 
L 499.945272 62.435612 
L 501.165596 67.415487 
L 506.246534 67.415487 
L 507.568745 73.40456 
L 508.911614 76.220845 
L 510.274748 78.356401 
L 515.928328 78.356401 
L 517.391983 84.219918 
L 518.875744 86.477942 
L 520.379608 93.221399 
L 521.903578 97.712858 
L 523.447651 97.712858 
L 525.011829 105.098184 
L 526.596111 115.07439 
L 528.200498 115.07439 
L 529.824989 117.240563 
L 531.469585 130.138698 
L 533.134285 130.138698 
L 536.523998 144.449984 
L 538.249011 152.033803 
L 539.994129 152.033803 
L 541.759351 158.221186 
L 543.544678 175.127879 
L 545.350108 175.127879 
L 547.175644 180.575568 
L 549.021283 182.940753 
L 550.887028 191.468243 
L 552.772876 200.865944 
L 554.678829 203.047426 
L 556.604886 220.757159 
L 558.551048 233.00625 
L 560.517314 257.161055 
L 562.503685 267.297883 
L 564.51016 289.360455 
L 566.536739 307.262252 
L 568.583423 349.929013 
L 570.650211 421.756456 
L 572.737104 458.243991 
L 574.844101 466.995849 
L 576.971203 466.995849 
L 579.118408 464.875602 
L 581.285719 458.105078 
L 587.908276 451.621868 
L 590.156004 445.009859 
L 592.423836 439.940258 
L 594.711773 437.079447 
L 599.34796 432.701175 
L 601.69621 425.881175 
L 604.064564 421.257966 
L 606.453023 417.151717 
L 608.861586 417.151717 
L 611.290254 414.863075 
L 616.207903 410.469495 
L 618.696883 408.272704 
L 621.205969 408.272704 
L 623.735158 405.907519 
L 626.284453 399.828321 
L 628.853851 395.541901 
L 631.443354 393.283877 
L 634.052961 393.283877 
L 636.682673 390.949309 
L 639.332489 390.949309 
L 642.00241 394.67863 
L 644.692435 392.512458 
L 658.444126 392.512458 
L 661.254778 396.771793 
L 666.936394 396.771793 
L 669.807358 403.62241 
L 684.463748 403.62241 
L 687.455339 405.880435 
L 699.622748 405.880435 
L 702.714861 408.061916 
L 705.827079 408.061916 
L 708.959401 410.411793 
L 724.922578 410.411793 
L 728.175526 412.516731 
L 741.388364 412.516731 
L 744.742397 410.411793 
L 775.842803 410.411793 
L 775.842803 410.411793 
" style="fill:none;stroke:#000080;stroke-linecap:square;stroke-width:4.0;"/>
   </g>
   <g id="line2d_2">
    <path clip-path="url(#p55286ebfea)" d="M 108 404.8 
L 777.6 404.8 
" style="fill:none;stroke:#808080;stroke-linecap:square;stroke-width:4.0;"/>
   </g>
   <g id="line2d_3">
    <path clip-path="url(#p55286ebfea)" d="M 390.363134 504 
L 390.363134 57.6 
" style="fill:none;stroke:#000000;stroke-dasharray:6.000000,6.000000;stroke-dashoffset:0.0;stroke-width:3.0;"/>
   </g>
   <g id="line2d_4">
    <path clip-path="url(#p55286ebfea)" d="M 496.390314 504 
L 496.390314 57.6 
" style="fill:none;stroke:#000000;stroke-dasharray:6.000000,6.000000;stroke-dashoffset:0.0;stroke-width:3.0;"/>
   </g>
   <g id="patch_3">
    <path d="M 108 504 
L 108 57.6 
" style="fill:none;stroke:#000000;stroke-linecap:square;stroke-linejoin:miter;"/>
   </g>
   <g id="patch_4">
    <path d="M 108 504 
L 777.6 504 
" style="fill:none;stroke:#000000;stroke-linecap:square;stroke-linejoin:miter;"/>
   </g>
   <g id="matplotlib.axis_1">
    <g id="text_1">
     <!-- Alongshore Direction of Continental Shelf -->
     <defs>
      <path d="M 18.3125 70.21875 
L 18.3125 54.6875 
L 36.8125 54.6875 
L 36.8125 47.703125 
L 18.3125 47.703125 
L 18.3125 18.015625 
Q 18.3125 11.328125 20.140625 9.421875 
Q 21.96875 7.515625 27.59375 7.515625 
L 36.8125 7.515625 
L 36.8125 0 
L 27.59375 0 
Q 17.1875 0 13.234375 3.875 
Q 9.28125 7.765625 9.28125 18.015625 
L 9.28125 47.703125 
L 2.6875 47.703125 
L 2.6875 54.6875 
L 9.28125 54.6875 
L 9.28125 70.21875 
z
" id="BitstreamVeraSans-Roman-74"/>
      <path d="M 34.1875 63.1875 
L 20.796875 26.90625 
L 47.609375 26.90625 
z
M 28.609375 72.90625 
L 39.796875 72.90625 
L 67.578125 0 
L 57.328125 0 
L 50.6875 18.703125 
L 17.828125 18.703125 
L 11.1875 0 
L 0.78125 0 
z
" id="BitstreamVeraSans-Roman-41"/>
      <path id="BitstreamVeraSans-Roman-20"/>
      <path d="M 9.421875 54.6875 
L 18.40625 54.6875 
L 18.40625 0 
L 9.421875 0 
z
M 9.421875 75.984375 
L 18.40625 75.984375 
L 18.40625 64.59375 
L 9.421875 64.59375 
z
" id="BitstreamVeraSans-Roman-69"/>
      <path d="M 30.609375 48.390625 
Q 23.390625 48.390625 19.1875 42.75 
Q 14.984375 37.109375 14.984375 27.296875 
Q 14.984375 17.484375 19.15625 11.84375 
Q 23.34375 6.203125 30.609375 6.203125 
Q 37.796875 6.203125 41.984375 11.859375 
Q 46.1875 17.53125 46.1875 27.296875 
Q 46.1875 37.015625 41.984375 42.703125 
Q 37.796875 48.390625 30.609375 48.390625 
M 30.609375 56 
Q 42.328125 56 49.015625 48.375 
Q 55.71875 40.765625 55.71875 27.296875 
Q 55.71875 13.875 49.015625 6.21875 
Q 42.328125 -1.421875 30.609375 -1.421875 
Q 18.84375 -1.421875 12.171875 6.21875 
Q 5.515625 13.875 5.515625 27.296875 
Q 5.515625 40.765625 12.171875 48.375 
Q 18.84375 56 30.609375 56 
" id="BitstreamVeraSans-Roman-6f"/>
      <path d="M 9.421875 75.984375 
L 18.40625 75.984375 
L 18.40625 0 
L 9.421875 0 
z
" id="BitstreamVeraSans-Roman-6c"/>
      <path d="M 64.40625 67.28125 
L 64.40625 56.890625 
Q 59.421875 61.53125 53.78125 63.8125 
Q 48.140625 66.109375 41.796875 66.109375 
Q 29.296875 66.109375 22.65625 58.46875 
Q 16.015625 50.828125 16.015625 36.375 
Q 16.015625 21.96875 22.65625 14.328125 
Q 29.296875 6.6875 41.796875 6.6875 
Q 48.140625 6.6875 53.78125 8.984375 
Q 59.421875 11.28125 64.40625 15.921875 
L 64.40625 5.609375 
Q 59.234375 2.09375 53.4375 0.328125 
Q 47.65625 -1.421875 41.21875 -1.421875 
Q 24.65625 -1.421875 15.125 8.703125 
Q 5.609375 18.84375 5.609375 36.375 
Q 5.609375 53.953125 15.125 64.078125 
Q 24.65625 74.21875 41.21875 74.21875 
Q 47.75 74.21875 53.53125 72.484375 
Q 59.328125 70.75 64.40625 67.28125 
" id="BitstreamVeraSans-Roman-43"/>
      <path d="M 54.890625 33.015625 
L 54.890625 0 
L 45.90625 0 
L 45.90625 32.71875 
Q 45.90625 40.484375 42.875 44.328125 
Q 39.84375 48.1875 33.796875 48.1875 
Q 26.515625 48.1875 22.3125 43.546875 
Q 18.109375 38.921875 18.109375 30.90625 
L 18.109375 0 
L 9.078125 0 
L 9.078125 54.6875 
L 18.109375 54.6875 
L 18.109375 46.1875 
Q 21.34375 51.125 25.703125 53.5625 
Q 30.078125 56 35.796875 56 
Q 45.21875 56 50.046875 50.171875 
Q 54.890625 44.34375 54.890625 33.015625 
" id="BitstreamVeraSans-Roman-6e"/>
      <path d="M 37.109375 75.984375 
L 37.109375 68.5 
L 28.515625 68.5 
Q 23.6875 68.5 21.796875 66.546875 
Q 19.921875 64.59375 19.921875 59.515625 
L 19.921875 54.6875 
L 34.71875 54.6875 
L 34.71875 47.703125 
L 19.921875 47.703125 
L 19.921875 0 
L 10.890625 0 
L 10.890625 47.703125 
L 2.296875 47.703125 
L 2.296875 54.6875 
L 10.890625 54.6875 
L 10.890625 58.5 
Q 10.890625 67.625 15.140625 71.796875 
Q 19.390625 75.984375 28.609375 75.984375 
z
" id="BitstreamVeraSans-Roman-66"/>
      <path d="M 41.109375 46.296875 
Q 39.59375 47.171875 37.8125 47.578125 
Q 36.03125 48 33.890625 48 
Q 26.265625 48 22.1875 43.046875 
Q 18.109375 38.09375 18.109375 28.8125 
L 18.109375 0 
L 9.078125 0 
L 9.078125 54.6875 
L 18.109375 54.6875 
L 18.109375 46.1875 
Q 20.953125 51.171875 25.484375 53.578125 
Q 30.03125 56 36.53125 56 
Q 37.453125 56 38.578125 55.875 
Q 39.703125 55.765625 41.0625 55.515625 
z
" id="BitstreamVeraSans-Roman-72"/>
      <path d="M 44.28125 53.078125 
L 44.28125 44.578125 
Q 40.484375 46.53125 36.375 47.5 
Q 32.28125 48.484375 27.875 48.484375 
Q 21.1875 48.484375 17.84375 46.4375 
Q 14.5 44.390625 14.5 40.28125 
Q 14.5 37.15625 16.890625 35.375 
Q 19.28125 33.59375 26.515625 31.984375 
L 29.59375 31.296875 
Q 39.15625 29.25 43.1875 25.515625 
Q 47.21875 21.78125 47.21875 15.09375 
Q 47.21875 7.46875 41.1875 3.015625 
Q 35.15625 -1.421875 24.609375 -1.421875 
Q 20.21875 -1.421875 15.453125 -0.5625 
Q 10.6875 0.296875 5.421875 2 
L 5.421875 11.28125 
Q 10.40625 8.6875 15.234375 7.390625 
Q 20.0625 6.109375 24.8125 6.109375 
Q 31.15625 6.109375 34.5625 8.28125 
Q 37.984375 10.453125 37.984375 14.40625 
Q 37.984375 18.0625 35.515625 20.015625 
Q 33.0625 21.96875 24.703125 23.78125 
L 21.578125 24.515625 
Q 13.234375 26.265625 9.515625 29.90625 
Q 5.8125 33.546875 5.8125 39.890625 
Q 5.8125 47.609375 11.28125 51.796875 
Q 16.75 56 26.8125 56 
Q 31.78125 56 36.171875 55.265625 
Q 40.578125 54.546875 44.28125 53.078125 
" id="BitstreamVeraSans-Roman-73"/>
      <path d="M 19.671875 64.796875 
L 19.671875 8.109375 
L 31.59375 8.109375 
Q 46.6875 8.109375 53.6875 14.9375 
Q 60.6875 21.78125 60.6875 36.53125 
Q 60.6875 51.171875 53.6875 57.984375 
Q 46.6875 64.796875 31.59375 64.796875 
z
M 9.8125 72.90625 
L 30.078125 72.90625 
Q 51.265625 72.90625 61.171875 64.09375 
Q 71.09375 55.28125 71.09375 36.53125 
Q 71.09375 17.671875 61.125 8.828125 
Q 51.171875 0 30.078125 0 
L 9.8125 0 
z
" id="BitstreamVeraSans-Roman-44"/>
      <path d="M 48.78125 52.59375 
L 48.78125 44.1875 
Q 44.96875 46.296875 41.140625 47.34375 
Q 37.3125 48.390625 33.40625 48.390625 
Q 24.65625 48.390625 19.8125 42.84375 
Q 14.984375 37.3125 14.984375 27.296875 
Q 14.984375 17.28125 19.8125 11.734375 
Q 24.65625 6.203125 33.40625 6.203125 
Q 37.3125 6.203125 41.140625 7.25 
Q 44.96875 8.296875 48.78125 10.40625 
L 48.78125 2.09375 
Q 45.015625 0.34375 40.984375 -0.53125 
Q 36.96875 -1.421875 32.421875 -1.421875 
Q 20.0625 -1.421875 12.78125 6.34375 
Q 5.515625 14.109375 5.515625 27.296875 
Q 5.515625 40.671875 12.859375 48.328125 
Q 20.21875 56 33.015625 56 
Q 37.15625 56 41.109375 55.140625 
Q 45.0625 54.296875 48.78125 52.59375 
" id="BitstreamVeraSans-Roman-63"/>
      <path d="M 54.890625 33.015625 
L 54.890625 0 
L 45.90625 0 
L 45.90625 32.71875 
Q 45.90625 40.484375 42.875 44.328125 
Q 39.84375 48.1875 33.796875 48.1875 
Q 26.515625 48.1875 22.3125 43.546875 
Q 18.109375 38.921875 18.109375 30.90625 
L 18.109375 0 
L 9.078125 0 
L 9.078125 75.984375 
L 18.109375 75.984375 
L 18.109375 46.1875 
Q 21.34375 51.125 25.703125 53.5625 
Q 30.078125 56 35.796875 56 
Q 45.21875 56 50.046875 50.171875 
Q 54.890625 44.34375 54.890625 33.015625 
" id="BitstreamVeraSans-Roman-68"/>
      <path d="M 56.203125 29.59375 
L 56.203125 25.203125 
L 14.890625 25.203125 
Q 15.484375 15.921875 20.484375 11.0625 
Q 25.484375 6.203125 34.421875 6.203125 
Q 39.59375 6.203125 44.453125 7.46875 
Q 49.3125 8.734375 54.109375 11.28125 
L 54.109375 2.78125 
Q 49.265625 0.734375 44.1875 -0.34375 
Q 39.109375 -1.421875 33.890625 -1.421875 
Q 20.796875 -1.421875 13.15625 6.1875 
Q 5.515625 13.8125 5.515625 26.8125 
Q 5.515625 40.234375 12.765625 48.109375 
Q 20.015625 56 32.328125 56 
Q 43.359375 56 49.78125 48.890625 
Q 56.203125 41.796875 56.203125 29.59375 
M 47.21875 32.234375 
Q 47.125 39.59375 43.09375 43.984375 
Q 39.0625 48.390625 32.421875 48.390625 
Q 24.90625 48.390625 20.390625 44.140625 
Q 15.875 39.890625 15.1875 32.171875 
z
" id="BitstreamVeraSans-Roman-65"/>
      <path d="M 45.40625 27.984375 
Q 45.40625 37.75 41.375 43.109375 
Q 37.359375 48.484375 30.078125 48.484375 
Q 22.859375 48.484375 18.828125 43.109375 
Q 14.796875 37.75 14.796875 27.984375 
Q 14.796875 18.265625 18.828125 12.890625 
Q 22.859375 7.515625 30.078125 7.515625 
Q 37.359375 7.515625 41.375 12.890625 
Q 45.40625 18.265625 45.40625 27.984375 
M 54.390625 6.78125 
Q 54.390625 -7.171875 48.1875 -13.984375 
Q 42 -20.796875 29.203125 -20.796875 
Q 24.46875 -20.796875 20.265625 -20.09375 
Q 16.0625 -19.390625 12.109375 -17.921875 
L 12.109375 -9.1875 
Q 16.0625 -11.328125 19.921875 -12.34375 
Q 23.78125 -13.375 27.78125 -13.375 
Q 36.625 -13.375 41.015625 -8.765625 
Q 45.40625 -4.15625 45.40625 5.171875 
L 45.40625 9.625 
Q 42.625 4.78125 38.28125 2.390625 
Q 33.9375 0 27.875 0 
Q 17.828125 0 11.671875 7.65625 
Q 5.515625 15.328125 5.515625 27.984375 
Q 5.515625 40.671875 11.671875 48.328125 
Q 17.828125 56 27.875 56 
Q 33.9375 56 38.28125 53.609375 
Q 42.625 51.21875 45.40625 46.390625 
L 45.40625 54.6875 
L 54.390625 54.6875 
z
" id="BitstreamVeraSans-Roman-67"/>
      <path d="M 34.28125 27.484375 
Q 23.390625 27.484375 19.1875 25 
Q 14.984375 22.515625 14.984375 16.5 
Q 14.984375 11.71875 18.140625 8.90625 
Q 21.296875 6.109375 26.703125 6.109375 
Q 34.1875 6.109375 38.703125 11.40625 
Q 43.21875 16.703125 43.21875 25.484375 
L 43.21875 27.484375 
z
M 52.203125 31.203125 
L 52.203125 0 
L 43.21875 0 
L 43.21875 8.296875 
Q 40.140625 3.328125 35.546875 0.953125 
Q 30.953125 -1.421875 24.3125 -1.421875 
Q 15.921875 -1.421875 10.953125 3.296875 
Q 6 8.015625 6 15.921875 
Q 6 25.140625 12.171875 29.828125 
Q 18.359375 34.515625 30.609375 34.515625 
L 43.21875 34.515625 
L 43.21875 35.40625 
Q 43.21875 41.609375 39.140625 45 
Q 35.0625 48.390625 27.6875 48.390625 
Q 23 48.390625 18.546875 47.265625 
Q 14.109375 46.140625 10.015625 43.890625 
L 10.015625 52.203125 
Q 14.9375 54.109375 19.578125 55.046875 
Q 24.21875 56 28.609375 56 
Q 40.484375 56 46.34375 49.84375 
Q 52.203125 43.703125 52.203125 31.203125 
" id="BitstreamVeraSans-Roman-61"/>
      <path d="M 53.515625 70.515625 
L 53.515625 60.890625 
Q 47.90625 63.578125 42.921875 64.890625 
Q 37.9375 66.21875 33.296875 66.21875 
Q 25.25 66.21875 20.875 63.09375 
Q 16.5 59.96875 16.5 54.203125 
Q 16.5 49.359375 19.40625 46.890625 
Q 22.3125 44.4375 30.421875 42.921875 
L 36.375 41.703125 
Q 47.40625 39.59375 52.65625 34.296875 
Q 57.90625 29 57.90625 20.125 
Q 57.90625 9.515625 50.796875 4.046875 
Q 43.703125 -1.421875 29.984375 -1.421875 
Q 24.8125 -1.421875 18.96875 -0.25 
Q 13.140625 0.921875 6.890625 3.21875 
L 6.890625 13.375 
Q 12.890625 10.015625 18.65625 8.296875 
Q 24.421875 6.59375 29.984375 6.59375 
Q 38.421875 6.59375 43.015625 9.90625 
Q 47.609375 13.234375 47.609375 19.390625 
Q 47.609375 24.75 44.3125 27.78125 
Q 41.015625 30.8125 33.5 32.328125 
L 27.484375 33.5 
Q 16.453125 35.6875 11.515625 40.375 
Q 6.59375 45.0625 6.59375 53.421875 
Q 6.59375 63.09375 13.40625 68.65625 
Q 20.21875 74.21875 32.171875 74.21875 
Q 37.3125 74.21875 42.625 73.28125 
Q 47.953125 72.359375 53.515625 70.515625 
" id="BitstreamVeraSans-Roman-53"/>
     </defs>
     <g transform="translate(277.18125 521.1575)scale(0.16 -0.16)">
      <use xlink:href="#BitstreamVeraSans-Roman-41"/>
      <use x="68.408203125" xlink:href="#BitstreamVeraSans-Roman-6c"/>
      <use x="96.19140625" xlink:href="#BitstreamVeraSans-Roman-6f"/>
      <use x="157.373046875" xlink:href="#BitstreamVeraSans-Roman-6e"/>
      <use x="220.751953125" xlink:href="#BitstreamVeraSans-Roman-67"/>
      <use x="284.228515625" xlink:href="#BitstreamVeraSans-Roman-73"/>
      <use x="336.328125" xlink:href="#BitstreamVeraSans-Roman-68"/>
      <use x="399.70703125" xlink:href="#BitstreamVeraSans-Roman-6f"/>
      <use x="460.888671875" xlink:href="#BitstreamVeraSans-Roman-72"/>
      <use x="501.970703125" xlink:href="#BitstreamVeraSans-Roman-65"/>
      <use x="563.494140625" xlink:href="#BitstreamVeraSans-Roman-20"/>
      <use x="595.28125" xlink:href="#BitstreamVeraSans-Roman-44"/>
      <use x="672.283203125" xlink:href="#BitstreamVeraSans-Roman-69"/>
      <use x="700.06640625" xlink:href="#BitstreamVeraSans-Roman-72"/>
      <use x="741.1484375" xlink:href="#BitstreamVeraSans-Roman-65"/>
      <use x="802.671875" xlink:href="#BitstreamVeraSans-Roman-63"/>
      <use x="857.65234375" xlink:href="#BitstreamVeraSans-Roman-74"/>
      <use x="896.861328125" xlink:href="#BitstreamVeraSans-Roman-69"/>
      <use x="924.64453125" xlink:href="#BitstreamVeraSans-Roman-6f"/>
      <use x="985.826171875" xlink:href="#BitstreamVeraSans-Roman-6e"/>
      <use x="1049.205078125" xlink:href="#BitstreamVeraSans-Roman-20"/>
      <use x="1080.9921875" xlink:href="#BitstreamVeraSans-Roman-6f"/>
      <use x="1142.173828125" xlink:href="#BitstreamVeraSans-Roman-66"/>
      <use x="1177.37890625" xlink:href="#BitstreamVeraSans-Roman-20"/>
      <use x="1209.166015625" xlink:href="#BitstreamVeraSans-Roman-43"/>
      <use x="1278.990234375" xlink:href="#BitstreamVeraSans-Roman-6f"/>
      <use x="1340.171875" xlink:href="#BitstreamVeraSans-Roman-6e"/>
      <use x="1403.55078125" xlink:href="#BitstreamVeraSans-Roman-74"/>
      <use x="1442.759765625" xlink:href="#BitstreamVeraSans-Roman-69"/>
      <use x="1470.54296875" xlink:href="#BitstreamVeraSans-Roman-6e"/>
      <use x="1533.921875" xlink:href="#BitstreamVeraSans-Roman-65"/>
      <use x="1595.4453125" xlink:href="#BitstreamVeraSans-Roman-6e"/>
      <use x="1658.82421875" xlink:href="#BitstreamVeraSans-Roman-74"/>
      <use x="1698.033203125" xlink:href="#BitstreamVeraSans-Roman-61"/>
      <use x="1759.3125" xlink:href="#BitstreamVeraSans-Roman-6c"/>
      <use x="1787.095703125" xlink:href="#BitstreamVeraSans-Roman-20"/>
      <use x="1818.8828125" xlink:href="#BitstreamVeraSans-Roman-53"/>
      <use x="1882.359375" xlink:href="#BitstreamVeraSans-Roman-68"/>
      <use x="1945.73828125" xlink:href="#BitstreamVeraSans-Roman-65"/>
      <use x="2007.26171875" xlink:href="#BitstreamVeraSans-Roman-6c"/>
      <use x="2035.044921875" xlink:href="#BitstreamVeraSans-Roman-66"/>
     </g>
    </g>
   </g>
   <g id="matplotlib.axis_2">
    <g id="text_2">
     <!-- Volume of Upwelled Water over Shelf -->
     <defs>
      <path d="M 45.40625 46.390625 
L 45.40625 75.984375 
L 54.390625 75.984375 
L 54.390625 0 
L 45.40625 0 
L 45.40625 8.203125 
Q 42.578125 3.328125 38.25 0.953125 
Q 33.9375 -1.421875 27.875 -1.421875 
Q 17.96875 -1.421875 11.734375 6.484375 
Q 5.515625 14.40625 5.515625 27.296875 
Q 5.515625 40.1875 11.734375 48.09375 
Q 17.96875 56 27.875 56 
Q 33.9375 56 38.25 53.625 
Q 42.578125 51.265625 45.40625 46.390625 
M 14.796875 27.296875 
Q 14.796875 17.390625 18.875 11.75 
Q 22.953125 6.109375 30.078125 6.109375 
Q 37.203125 6.109375 41.296875 11.75 
Q 45.40625 17.390625 45.40625 27.296875 
Q 45.40625 37.203125 41.296875 42.84375 
Q 37.203125 48.484375 30.078125 48.484375 
Q 22.953125 48.484375 18.875 42.84375 
Q 14.796875 37.203125 14.796875 27.296875 
" id="BitstreamVeraSans-Roman-64"/>
      <path d="M 2.984375 54.6875 
L 12.5 54.6875 
L 29.59375 8.796875 
L 46.6875 54.6875 
L 56.203125 54.6875 
L 35.6875 0 
L 23.484375 0 
z
" id="BitstreamVeraSans-Roman-76"/>
      <path d="M 4.203125 54.6875 
L 13.1875 54.6875 
L 24.421875 12.015625 
L 35.59375 54.6875 
L 46.1875 54.6875 
L 57.421875 12.015625 
L 68.609375 54.6875 
L 77.59375 54.6875 
L 63.28125 0 
L 52.6875 0 
L 40.921875 44.828125 
L 29.109375 0 
L 18.5 0 
z
" id="BitstreamVeraSans-Roman-77"/>
      <path d="M 8.5 21.578125 
L 8.5 54.6875 
L 17.484375 54.6875 
L 17.484375 21.921875 
Q 17.484375 14.15625 20.5 10.265625 
Q 23.53125 6.390625 29.59375 6.390625 
Q 36.859375 6.390625 41.078125 11.03125 
Q 45.3125 15.671875 45.3125 23.6875 
L 45.3125 54.6875 
L 54.296875 54.6875 
L 54.296875 0 
L 45.3125 0 
L 45.3125 8.40625 
Q 42.046875 3.421875 37.71875 1 
Q 33.40625 -1.421875 27.6875 -1.421875 
Q 18.265625 -1.421875 13.375 4.4375 
Q 8.5 10.296875 8.5 21.578125 
" id="BitstreamVeraSans-Roman-75"/>
      <path d="M 18.109375 8.203125 
L 18.109375 -20.796875 
L 9.078125 -20.796875 
L 9.078125 54.6875 
L 18.109375 54.6875 
L 18.109375 46.390625 
Q 20.953125 51.265625 25.265625 53.625 
Q 29.59375 56 35.59375 56 
Q 45.5625 56 51.78125 48.09375 
Q 58.015625 40.1875 58.015625 27.296875 
Q 58.015625 14.40625 51.78125 6.484375 
Q 45.5625 -1.421875 35.59375 -1.421875 
Q 29.59375 -1.421875 25.265625 0.953125 
Q 20.953125 3.328125 18.109375 8.203125 
M 48.6875 27.296875 
Q 48.6875 37.203125 44.609375 42.84375 
Q 40.53125 48.484375 33.40625 48.484375 
Q 26.265625 48.484375 22.1875 42.84375 
Q 18.109375 37.203125 18.109375 27.296875 
Q 18.109375 17.390625 22.1875 11.75 
Q 26.265625 6.109375 33.40625 6.109375 
Q 40.53125 6.109375 44.609375 11.75 
Q 48.6875 17.390625 48.6875 27.296875 
" id="BitstreamVeraSans-Roman-70"/>
      <path d="M 8.6875 72.90625 
L 18.609375 72.90625 
L 18.609375 28.609375 
Q 18.609375 16.890625 22.84375 11.734375 
Q 27.09375 6.59375 36.625 6.59375 
Q 46.09375 6.59375 50.34375 11.734375 
Q 54.59375 16.890625 54.59375 28.609375 
L 54.59375 72.90625 
L 64.5 72.90625 
L 64.5 27.390625 
Q 64.5 13.140625 57.4375 5.859375 
Q 50.390625 -1.421875 36.625 -1.421875 
Q 22.796875 -1.421875 15.734375 5.859375 
Q 8.6875 13.140625 8.6875 27.390625 
z
" id="BitstreamVeraSans-Roman-55"/>
      <path d="M 28.609375 0 
L 0.78125 72.90625 
L 11.078125 72.90625 
L 34.1875 11.53125 
L 57.328125 72.90625 
L 67.578125 72.90625 
L 39.796875 0 
z
" id="BitstreamVeraSans-Roman-56"/>
      <path d="M 52 44.1875 
Q 55.375 50.25 60.0625 53.125 
Q 64.75 56 71.09375 56 
Q 79.640625 56 84.28125 50.015625 
Q 88.921875 44.046875 88.921875 33.015625 
L 88.921875 0 
L 79.890625 0 
L 79.890625 32.71875 
Q 79.890625 40.578125 77.09375 44.375 
Q 74.3125 48.1875 68.609375 48.1875 
Q 61.625 48.1875 57.5625 43.546875 
Q 53.515625 38.921875 53.515625 30.90625 
L 53.515625 0 
L 44.484375 0 
L 44.484375 32.71875 
Q 44.484375 40.625 41.703125 44.40625 
Q 38.921875 48.1875 33.109375 48.1875 
Q 26.21875 48.1875 22.15625 43.53125 
Q 18.109375 38.875 18.109375 30.90625 
L 18.109375 0 
L 9.078125 0 
L 9.078125 54.6875 
L 18.109375 54.6875 
L 18.109375 46.1875 
Q 21.1875 51.21875 25.484375 53.609375 
Q 29.78125 56 35.6875 56 
Q 41.65625 56 45.828125 52.96875 
Q 50 49.953125 52 44.1875 
" id="BitstreamVeraSans-Roman-6d"/>
      <path d="M 3.328125 72.90625 
L 13.28125 72.90625 
L 28.609375 11.28125 
L 43.890625 72.90625 
L 54.984375 72.90625 
L 70.3125 11.28125 
L 85.59375 72.90625 
L 95.609375 72.90625 
L 77.296875 0 
L 64.890625 0 
L 49.515625 63.28125 
L 33.984375 0 
L 21.578125 0 
z
" id="BitstreamVeraSans-Roman-57"/>
     </defs>
     <g transform="translate(99.6725 430.53875)rotate(-90.0)scale(0.16 -0.16)">
      <use xlink:href="#BitstreamVeraSans-Roman-56"/>
      <use x="68.298828125" xlink:href="#BitstreamVeraSans-Roman-6f"/>
      <use x="129.48046875" xlink:href="#BitstreamVeraSans-Roman-6c"/>
      <use x="157.263671875" xlink:href="#BitstreamVeraSans-Roman-75"/>
      <use x="220.642578125" xlink:href="#BitstreamVeraSans-Roman-6d"/>
      <use x="318.0546875" xlink:href="#BitstreamVeraSans-Roman-65"/>
      <use x="379.578125" xlink:href="#BitstreamVeraSans-Roman-20"/>
      <use x="411.365234375" xlink:href="#BitstreamVeraSans-Roman-6f"/>
      <use x="472.546875" xlink:href="#BitstreamVeraSans-Roman-66"/>
      <use x="507.751953125" xlink:href="#BitstreamVeraSans-Roman-20"/>
      <use x="539.5390625" xlink:href="#BitstreamVeraSans-Roman-55"/>
      <use x="612.732421875" xlink:href="#BitstreamVeraSans-Roman-70"/>
      <use x="676.208984375" xlink:href="#BitstreamVeraSans-Roman-77"/>
      <use x="757.99609375" xlink:href="#BitstreamVeraSans-Roman-65"/>
      <use x="819.51953125" xlink:href="#BitstreamVeraSans-Roman-6c"/>
      <use x="847.302734375" xlink:href="#BitstreamVeraSans-Roman-6c"/>
      <use x="875.0859375" xlink:href="#BitstreamVeraSans-Roman-65"/>
      <use x="936.609375" xlink:href="#BitstreamVeraSans-Roman-64"/>
      <use x="1000.0859375" xlink:href="#BitstreamVeraSans-Roman-20"/>
      <use x="1031.873046875" xlink:href="#BitstreamVeraSans-Roman-57"/>
      <use x="1130.65625" xlink:href="#BitstreamVeraSans-Roman-61"/>
      <use x="1191.935546875" xlink:href="#BitstreamVeraSans-Roman-74"/>
      <use x="1231.14453125" xlink:href="#BitstreamVeraSans-Roman-65"/>
      <use x="1292.66796875" xlink:href="#BitstreamVeraSans-Roman-72"/>
      <use x="1333.78125" xlink:href="#BitstreamVeraSans-Roman-20"/>
      <use x="1365.568359375" xlink:href="#BitstreamVeraSans-Roman-6f"/>
      <use x="1426.75" xlink:href="#BitstreamVeraSans-Roman-76"/>
      <use x="1485.9296875" xlink:href="#BitstreamVeraSans-Roman-65"/>
      <use x="1547.453125" xlink:href="#BitstreamVeraSans-Roman-72"/>
      <use x="1588.56640625" xlink:href="#BitstreamVeraSans-Roman-20"/>
      <use x="1620.353515625" xlink:href="#BitstreamVeraSans-Roman-53"/>
      <use x="1683.830078125" xlink:href="#BitstreamVeraSans-Roman-68"/>
      <use x="1747.208984375" xlink:href="#BitstreamVeraSans-Roman-65"/>
      <use x="1808.732421875" xlink:href="#BitstreamVeraSans-Roman-6c"/>
      <use x="1836.515625" xlink:href="#BitstreamVeraSans-Roman-66"/>
     </g>
    </g>
   </g>
   <g id="text_3">
    <!-- Time Dependence: At A Later Time -->
    <defs>
     <path d="M 9.8125 72.90625 
L 19.671875 72.90625 
L 19.671875 8.296875 
L 55.171875 8.296875 
L 55.171875 0 
L 9.8125 0 
z
" id="BitstreamVeraSans-Roman-4c"/>
     <path d="M -0.296875 72.90625 
L 61.375 72.90625 
L 61.375 64.59375 
L 35.5 64.59375 
L 35.5 0 
L 25.59375 0 
L 25.59375 64.59375 
L -0.296875 64.59375 
z
" id="BitstreamVeraSans-Roman-54"/>
     <path d="M 11.71875 12.40625 
L 22.015625 12.40625 
L 22.015625 0 
L 11.71875 0 
z
M 11.71875 51.703125 
L 22.015625 51.703125 
L 22.015625 39.3125 
L 11.71875 39.3125 
z
" id="BitstreamVeraSans-Roman-3a"/>
    </defs>
    <g transform="translate(284.87109375 52.6)scale(0.18 -0.18)">
     <use xlink:href="#BitstreamVeraSans-Roman-54"/>
     <use x="61.037109375" xlink:href="#BitstreamVeraSans-Roman-69"/>
     <use x="88.8203125" xlink:href="#BitstreamVeraSans-Roman-6d"/>
     <use x="186.232421875" xlink:href="#BitstreamVeraSans-Roman-65"/>
     <use x="247.755859375" xlink:href="#BitstreamVeraSans-Roman-20"/>
     <use x="279.54296875" xlink:href="#BitstreamVeraSans-Roman-44"/>
     <use x="356.544921875" xlink:href="#BitstreamVeraSans-Roman-65"/>
     <use x="418.068359375" xlink:href="#BitstreamVeraSans-Roman-70"/>
     <use x="481.544921875" xlink:href="#BitstreamVeraSans-Roman-65"/>
     <use x="543.068359375" xlink:href="#BitstreamVeraSans-Roman-6e"/>
     <use x="606.447265625" xlink:href="#BitstreamVeraSans-Roman-64"/>
     <use x="669.923828125" xlink:href="#BitstreamVeraSans-Roman-65"/>
     <use x="731.447265625" xlink:href="#BitstreamVeraSans-Roman-6e"/>
     <use x="794.826171875" xlink:href="#BitstreamVeraSans-Roman-63"/>
     <use x="849.806640625" xlink:href="#BitstreamVeraSans-Roman-65"/>
     <use x="911.330078125" xlink:href="#BitstreamVeraSans-Roman-3a"/>
     <use x="945.021484375" xlink:href="#BitstreamVeraSans-Roman-20"/>
     <use x="976.80859375" xlink:href="#BitstreamVeraSans-Roman-41"/>
     <use x="1045.201171875" xlink:href="#BitstreamVeraSans-Roman-74"/>
     <use x="1084.41015625" xlink:href="#BitstreamVeraSans-Roman-20"/>
     <use x="1116.197265625" xlink:href="#BitstreamVeraSans-Roman-41"/>
     <use x="1184.60546875" xlink:href="#BitstreamVeraSans-Roman-20"/>
     <use x="1216.392578125" xlink:href="#BitstreamVeraSans-Roman-4c"/>
     <use x="1272.10546875" xlink:href="#BitstreamVeraSans-Roman-61"/>
     <use x="1333.384765625" xlink:href="#BitstreamVeraSans-Roman-74"/>
     <use x="1372.59375" xlink:href="#BitstreamVeraSans-Roman-65"/>
     <use x="1434.1171875" xlink:href="#BitstreamVeraSans-Roman-72"/>
     <use x="1475.23046875" xlink:href="#BitstreamVeraSans-Roman-20"/>
     <use x="1507.017578125" xlink:href="#BitstreamVeraSans-Roman-54"/>
     <use x="1568.0546875" xlink:href="#BitstreamVeraSans-Roman-69"/>
     <use x="1595.837890625" xlink:href="#BitstreamVeraSans-Roman-6d"/>
     <use x="1693.25" xlink:href="#BitstreamVeraSans-Roman-65"/>
    </g>
   </g>
   <g id="legend_1">
    <g id="patch_5">
     <path d="M 115 111.189375 
L 475.08 111.189375 
L 475.08 64.6 
L 115 64.6 
z
" style="fill:#ffffff;stroke:#000000;stroke-linejoin:miter;"/>
    </g>
    <g id="line2d_5">
     <path d="M 124.8 77.2 
L 144.4 77.2 
" style="fill:none;stroke:#808080;stroke-linecap:square;stroke-width:4.0;"/>
    </g>
    <g id="line2d_6"/>
    <g id="text_4">
     <!-- No Canyon Effect (Volume Difference: 0 m$^3$) -->
     <defs>
      <path d="M 9.8125 72.90625 
L 55.90625 72.90625 
L 55.90625 64.59375 
L 19.671875 64.59375 
L 19.671875 43.015625 
L 54.390625 43.015625 
L 54.390625 34.71875 
L 19.671875 34.71875 
L 19.671875 8.296875 
L 56.78125 8.296875 
L 56.78125 0 
L 9.8125 0 
z
" id="BitstreamVeraSans-Roman-45"/>
      <path d="M 31 75.875 
Q 24.46875 64.65625 21.28125 53.65625 
Q 18.109375 42.671875 18.109375 31.390625 
Q 18.109375 20.125 21.3125 9.0625 
Q 24.515625 -2 31 -13.1875 
L 23.1875 -13.1875 
Q 15.875 -1.703125 12.234375 9.375 
Q 8.59375 20.453125 8.59375 31.390625 
Q 8.59375 42.28125 12.203125 53.3125 
Q 15.828125 64.359375 23.1875 75.875 
z
" id="BitstreamVeraSans-Roman-28"/>
      <path d="M 8.015625 75.875 
L 15.828125 75.875 
Q 23.140625 64.359375 26.78125 53.3125 
Q 30.421875 42.28125 30.421875 31.390625 
Q 30.421875 20.453125 26.78125 9.375 
Q 23.140625 -1.703125 15.828125 -13.1875 
L 8.015625 -13.1875 
Q 14.5 -2 17.703125 9.0625 
Q 20.90625 20.125 20.90625 31.390625 
Q 20.90625 42.671875 17.703125 53.65625 
Q 14.5 64.65625 8.015625 75.875 
" id="BitstreamVeraSans-Roman-29"/>
      <path d="M 31.78125 66.40625 
Q 24.171875 66.40625 20.328125 58.90625 
Q 16.5 51.421875 16.5 36.375 
Q 16.5 21.390625 20.328125 13.890625 
Q 24.171875 6.390625 31.78125 6.390625 
Q 39.453125 6.390625 43.28125 13.890625 
Q 47.125 21.390625 47.125 36.375 
Q 47.125 51.421875 43.28125 58.90625 
Q 39.453125 66.40625 31.78125 66.40625 
M 31.78125 74.21875 
Q 44.046875 74.21875 50.515625 64.515625 
Q 56.984375 54.828125 56.984375 36.375 
Q 56.984375 17.96875 50.515625 8.265625 
Q 44.046875 -1.421875 31.78125 -1.421875 
Q 19.53125 -1.421875 13.0625 8.265625 
Q 6.59375 17.96875 6.59375 36.375 
Q 6.59375 54.828125 13.0625 64.515625 
Q 19.53125 74.21875 31.78125 74.21875 
" id="BitstreamVeraSans-Roman-30"/>
      <path d="M 9.8125 72.90625 
L 23.09375 72.90625 
L 55.421875 11.921875 
L 55.421875 72.90625 
L 64.984375 72.90625 
L 64.984375 0 
L 51.703125 0 
L 19.390625 60.984375 
L 19.390625 0 
L 9.8125 0 
z
" id="BitstreamVeraSans-Roman-4e"/>
      <path d="M 32.171875 -5.078125 
Q 28.375 -14.84375 24.75 -17.8125 
Q 21.140625 -20.796875 15.09375 -20.796875 
L 7.90625 -20.796875 
L 7.90625 -13.28125 
L 13.1875 -13.28125 
Q 16.890625 -13.28125 18.9375 -11.515625 
Q 21 -9.765625 23.484375 -3.21875 
L 25.09375 0.875 
L 2.984375 54.6875 
L 12.5 54.6875 
L 29.59375 11.921875 
L 46.6875 54.6875 
L 56.203125 54.6875 
z
" id="BitstreamVeraSans-Roman-79"/>
      <path d="M 9.515625 7.71875 
Q 11.859375 4.296875 15.8125 2.640625 
Q 19.78125 0.984375 24.3125 0.984375 
Q 30.125 0.984375 32.5625 5.9375 
Q 35.015625 10.890625 35.015625 17.1875 
Q 35.015625 20.015625 34.5 22.84375 
Q 33.984375 25.6875 32.765625 28.125 
Q 31.546875 30.5625 29.421875 32.03125 
Q 27.296875 33.5 24.21875 33.5 
L 17.578125 33.5 
Q 16.703125 33.5 16.703125 34.421875 
L 16.703125 35.296875 
Q 16.703125 36.078125 17.578125 36.078125 
L 23.09375 36.53125 
Q 26.609375 36.53125 28.921875 39.15625 
Q 31.25 41.796875 32.328125 45.578125 
Q 33.40625 49.359375 33.40625 52.78125 
Q 33.40625 57.5625 31.15625 60.640625 
Q 28.90625 63.71875 24.3125 63.71875 
Q 20.515625 63.71875 17.046875 62.28125 
Q 13.578125 60.84375 11.53125 57.90625 
Q 11.71875 57.953125 11.859375 57.984375 
Q 12.015625 58.015625 12.203125 58.015625 
Q 14.453125 58.015625 15.96875 56.453125 
Q 17.484375 54.890625 17.484375 52.6875 
Q 17.484375 50.53125 15.96875 48.96875 
Q 14.453125 47.40625 12.203125 47.40625 
Q 10.015625 47.40625 8.453125 48.96875 
Q 6.890625 50.53125 6.890625 52.6875 
Q 6.890625 56.984375 9.46875 60.15625 
Q 12.0625 63.328125 16.140625 64.96875 
Q 20.21875 66.609375 24.3125 66.609375 
Q 27.34375 66.609375 30.703125 65.703125 
Q 34.078125 64.796875 36.8125 63.109375 
Q 39.546875 61.421875 41.28125 58.78125 
Q 43.015625 56.15625 43.015625 52.78125 
Q 43.015625 48.578125 41.140625 45.015625 
Q 39.265625 41.453125 35.984375 38.859375 
Q 32.71875 36.28125 28.8125 35.015625 
Q 33.15625 34.1875 37.0625 31.734375 
Q 40.96875 29.296875 43.328125 25.484375 
Q 45.703125 21.6875 45.703125 17.28125 
Q 45.703125 11.765625 42.671875 7.296875 
Q 39.65625 2.828125 34.71875 0.3125 
Q 29.78125 -2.203125 24.3125 -2.203125 
Q 19.625 -2.203125 14.90625 -0.40625 
Q 10.203125 1.375 7.203125 4.9375 
Q 4.203125 8.5 4.203125 13.484375 
Q 4.203125 15.96875 5.859375 17.625 
Q 7.515625 19.28125 10.015625 19.28125 
Q 11.625 19.28125 12.96875 18.53125 
Q 14.3125 17.78125 15.0625 16.40625 
Q 15.828125 15.046875 15.828125 13.484375 
Q 15.828125 11.03125 14.109375 9.375 
Q 12.40625 7.71875 10.015625 7.71875 
z
" id="Cmr10-33"/>
     </defs>
     <g transform="translate(159.8 82.1)scale(0.14 -0.14)">
      <use transform="translate(0.0 0.109375)" xlink:href="#BitstreamVeraSans-Roman-4e"/>
      <use transform="translate(74.8046875 0.109375)" xlink:href="#BitstreamVeraSans-Roman-6f"/>
      <use transform="translate(135.986328125 0.109375)" xlink:href="#BitstreamVeraSans-Roman-20"/>
      <use transform="translate(167.7734375 0.109375)" xlink:href="#BitstreamVeraSans-Roman-43"/>
      <use transform="translate(237.59765625 0.109375)" xlink:href="#BitstreamVeraSans-Roman-61"/>
      <use transform="translate(298.876953125 0.109375)" xlink:href="#BitstreamVeraSans-Roman-6e"/>
      <use transform="translate(362.255859375 0.109375)" xlink:href="#BitstreamVeraSans-Roman-79"/>
      <use transform="translate(421.435546875 0.109375)" xlink:href="#BitstreamVeraSans-Roman-6f"/>
      <use transform="translate(482.6171875 0.109375)" xlink:href="#BitstreamVeraSans-Roman-6e"/>
      <use transform="translate(545.99609375 0.109375)" xlink:href="#BitstreamVeraSans-Roman-20"/>
      <use transform="translate(577.783203125 0.109375)" xlink:href="#BitstreamVeraSans-Roman-45"/>
      <use transform="translate(640.966796875 0.109375)" xlink:href="#BitstreamVeraSans-Roman-66"/>
      <use transform="translate(676.171875 0.109375)" xlink:href="#BitstreamVeraSans-Roman-66"/>
      <use transform="translate(711.376953125 0.109375)" xlink:href="#BitstreamVeraSans-Roman-65"/>
      <use transform="translate(772.900390625 0.109375)" xlink:href="#BitstreamVeraSans-Roman-63"/>
      <use transform="translate(827.880859375 0.109375)" xlink:href="#BitstreamVeraSans-Roman-74"/>
      <use transform="translate(867.08984375 0.109375)" xlink:href="#BitstreamVeraSans-Roman-20"/>
      <use transform="translate(898.876953125 0.109375)" xlink:href="#BitstreamVeraSans-Roman-28"/>
      <use transform="translate(937.890625 0.109375)" xlink:href="#BitstreamVeraSans-Roman-56"/>
      <use transform="translate(1006.298828125 0.109375)" xlink:href="#BitstreamVeraSans-Roman-6f"/>
      <use transform="translate(1067.48046875 0.109375)" xlink:href="#BitstreamVeraSans-Roman-6c"/>
      <use transform="translate(1095.263671875 0.109375)" xlink:href="#BitstreamVeraSans-Roman-75"/>
      <use transform="translate(1158.642578125 0.109375)" xlink:href="#BitstreamVeraSans-Roman-6d"/>
      <use transform="translate(1256.0546875 0.109375)" xlink:href="#BitstreamVeraSans-Roman-65"/>
      <use transform="translate(1317.578125 0.109375)" xlink:href="#BitstreamVeraSans-Roman-20"/>
      <use transform="translate(1349.365234375 0.109375)" xlink:href="#BitstreamVeraSans-Roman-44"/>
      <use transform="translate(1426.3671875 0.109375)" xlink:href="#BitstreamVeraSans-Roman-69"/>
      <use transform="translate(1454.150390625 0.109375)" xlink:href="#BitstreamVeraSans-Roman-66"/>
      <use transform="translate(1489.35546875 0.109375)" xlink:href="#BitstreamVeraSans-Roman-66"/>
      <use transform="translate(1524.560546875 0.109375)" xlink:href="#BitstreamVeraSans-Roman-65"/>
      <use transform="translate(1586.083984375 0.109375)" xlink:href="#BitstreamVeraSans-Roman-72"/>
      <use transform="translate(1627.197265625 0.109375)" xlink:href="#BitstreamVeraSans-Roman-65"/>
      <use transform="translate(1688.720703125 0.109375)" xlink:href="#BitstreamVeraSans-Roman-6e"/>
      <use transform="translate(1752.099609375 0.109375)" xlink:href="#BitstreamVeraSans-Roman-63"/>
      <use transform="translate(1807.080078125 0.109375)" xlink:href="#BitstreamVeraSans-Roman-65"/>
      <use transform="translate(1868.603515625 0.109375)" xlink:href="#BitstreamVeraSans-Roman-3a"/>
      <use transform="translate(1902.294921875 0.109375)" xlink:href="#BitstreamVeraSans-Roman-20"/>
      <use transform="translate(1934.08203125 0.109375)" xlink:href="#BitstreamVeraSans-Roman-30"/>
      <use transform="translate(1997.705078125 0.109375)" xlink:href="#BitstreamVeraSans-Roman-20"/>
      <use transform="translate(2029.4921875 0.109375)" xlink:href="#BitstreamVeraSans-Roman-6d"/>
      <use transform="translate(2131.3684375 38.3734375)scale(0.7)" xlink:href="#Cmr10-33"/>
      <use transform="translate(2172.74578125 0.109375)" xlink:href="#BitstreamVeraSans-Roman-29"/>
     </g>
    </g>
    <g id="line2d_7">
     <path d="M 124.8 97.777813 
L 144.4 97.777813 
" style="fill:none;stroke:#000000;stroke-dasharray:6.000000,6.000000;stroke-dashoffset:0.0;stroke-width:3.0;"/>
    </g>
    <g id="line2d_8"/>
    <g id="text_5">
     <!-- Location of Canyon Rim -->
     <defs>
      <path d="M 44.390625 34.1875 
Q 47.5625 33.109375 50.5625 29.59375 
Q 53.5625 26.078125 56.59375 19.921875 
L 66.609375 0 
L 56 0 
L 46.6875 18.703125 
Q 43.0625 26.03125 39.671875 28.421875 
Q 36.28125 30.8125 30.421875 30.8125 
L 19.671875 30.8125 
L 19.671875 0 
L 9.8125 0 
L 9.8125 72.90625 
L 32.078125 72.90625 
Q 44.578125 72.90625 50.734375 67.671875 
Q 56.890625 62.453125 56.890625 51.90625 
Q 56.890625 45.015625 53.6875 40.46875 
Q 50.484375 35.9375 44.390625 34.1875 
M 19.671875 64.796875 
L 19.671875 38.921875 
L 32.078125 38.921875 
Q 39.203125 38.921875 42.84375 42.21875 
Q 46.484375 45.515625 46.484375 51.90625 
Q 46.484375 58.296875 42.84375 61.546875 
Q 39.203125 64.796875 32.078125 64.796875 
z
" id="BitstreamVeraSans-Roman-52"/>
     </defs>
     <g transform="translate(159.8 102.6778125)scale(0.14 -0.14)">
      <use xlink:href="#BitstreamVeraSans-Roman-4c"/>
      <use x="55.697265625" xlink:href="#BitstreamVeraSans-Roman-6f"/>
      <use x="116.87890625" xlink:href="#BitstreamVeraSans-Roman-63"/>
      <use x="171.859375" xlink:href="#BitstreamVeraSans-Roman-61"/>
      <use x="233.138671875" xlink:href="#BitstreamVeraSans-Roman-74"/>
      <use x="272.34765625" xlink:href="#BitstreamVeraSans-Roman-69"/>
      <use x="300.130859375" xlink:href="#BitstreamVeraSans-Roman-6f"/>
      <use x="361.3125" xlink:href="#BitstreamVeraSans-Roman-6e"/>
      <use x="424.69140625" xlink:href="#BitstreamVeraSans-Roman-20"/>
      <use x="456.478515625" xlink:href="#BitstreamVeraSans-Roman-6f"/>
      <use x="517.66015625" xlink:href="#BitstreamVeraSans-Roman-66"/>
      <use x="552.865234375" xlink:href="#BitstreamVeraSans-Roman-20"/>
      <use x="584.65234375" xlink:href="#BitstreamVeraSans-Roman-43"/>
      <use x="654.4765625" xlink:href="#BitstreamVeraSans-Roman-61"/>
      <use x="715.755859375" xlink:href="#BitstreamVeraSans-Roman-6e"/>
      <use x="779.134765625" xlink:href="#BitstreamVeraSans-Roman-79"/>
      <use x="838.314453125" xlink:href="#BitstreamVeraSans-Roman-6f"/>
      <use x="899.49609375" xlink:href="#BitstreamVeraSans-Roman-6e"/>
      <use x="962.875" xlink:href="#BitstreamVeraSans-Roman-20"/>
      <use x="994.662109375" xlink:href="#BitstreamVeraSans-Roman-52"/>
      <use x="1064.14453125" xlink:href="#BitstreamVeraSans-Roman-69"/>
      <use x="1091.927734375" xlink:href="#BitstreamVeraSans-Roman-6d"/>
     </g>
    </g>
   </g>
  </g>
 </g>
 <defs>
  <clipPath id="p55286ebfea">
   <rect height="446.4" width="669.6" x="108.0" y="57.6"/>
  </clipPath>
 </defs>
</svg>
