<?xml version="1.0" encoding="utf-8" standalone="no"?>
<!DOCTYPE svg PUBLIC "-//W3C//DTD SVG 1.1//EN"
  "http://www.w3.org/Graphics/SVG/1.1/DTD/svg11.dtd">
<!-- Created with matplotlib (http://matplotlib.org/) -->
<svg height="576pt" version="1.1" viewBox="0 0 864 576" width="864pt" xmlns="http://www.w3.org/2000/svg" xmlns:xlink="http://www.w3.org/1999/xlink">
 <defs>
  <style type="text/css">
*{stroke-linecap:butt;stroke-linejoin:round;stroke-miterlimit:100000;}
  </style>
 </defs>
 <g id="figure_1">
  <g id="patch_1">
   <path d="M 0 576 
L 864 576 
L 864 0 
L 0 0 
z
" style="fill:#c1bddb;"/>
  </g>
  <g id="axes_1">
   <g id="patch_2">
    <path d="M 108 504 
L 777.6 504 
L 777.6 57.6 
L 108 57.6 
L 108 504 
z
" style="fill:none;"/>
   </g>
   <g id="line2d_1">
    <path clip-path="url(#pe2227c0ff5)" d="M 109.757197 391.96307 
L 113.269446 396.800601 
L 116.775323 399.362524 
L 120.2708 398.984452 
L 123.752175 401.288403 
L 127.21621 405.896304 
L 130.660256 408.292106 
L 134.082386 410.868109 
L 147.545002 410.868109 
L 150.858264 408.292106 
L 157.424474 408.292106 
L 160.677422 410.519514 
L 192.101165 410.519514 
L 195.132965 413.109684 
L 201.136252 413.109684 
L 204.107739 410.713882 
L 207.059121 413.289885 
L 215.792642 413.289885 
L 218.663606 410.817539 
L 229.946421 410.817539 
L 232.716864 411.151499 
L 254.156646 411.151499 
L 256.746149 408.924092 
L 259.315547 408.924092 
L 261.864842 409.913382 
L 288.580186 409.913382 
L 290.888227 407.609431 
L 319.063261 407.609431 
L 321.08984 409.243308 
L 328.995114 409.243308 
L 330.921171 411.715653 
L 336.578717 411.715653 
L 340.249892 416.170468 
L 349.076002 416.170468 
L 350.780911 418.397875 
L 359.003889 418.397875 
L 360.588171 420.665527 
L 366.724256 420.665527 
L 369.671672 425.548984 
L 375.325252 425.548984 
L 376.688386 430.034416 
L 378.031255 435.070645 
L 379.353466 439.4183 
L 380.654725 441.936571 
L 381.935057 441.936571 
L 384.434404 446.886197 
L 385.654728 453.599036 
L 386.856662 454.581988 
L 388.041264 454.581988 
L 389.209686 465.288026 
L 390.363134 467.561359 
L 391.502835 471.973937 
L 392.629996 478.855172 
L 393.745769 481.220357 
L 394.85121 488.285295 
L 395.947245 493.061592 
L 397.034631 495.457394 
L 398.113918 500.187765 
L 400.249139 500.262612 
L 401.304802 498.300681 
L 403.3906 498.300681 
L 404.420575 496.226501 
L 405.441934 493.81016 
L 406.454677 493.490234 
L 407.458803 489.050728 
L 408.454314 489.050728 
L 409.441208 484.427518 
L 415.181633 484.427518 
L 416.108214 481.674682 
L 417.026178 481.674682 
L 417.935527 480.691731 
L 419.728375 480.691731 
L 420.611875 478.571484 
L 421.486759 476.974088 
L 429.761708 476.974088 
L 430.541814 474.773608 
L 431.313303 474.773608 
L 432.076177 474.439649 
L 439.883231 474.439649 
L 440.539591 476.743599 
L 441.189907 476.743599 
L 441.835767 475.754309 
L 442.478895 478.150111 
L 443.764233 478.150111 
L 445.060409 482.681469 
L 447.73467 482.681469 
L 448.426273 482.41638 
L 449.127763 480.782504 
L 451.2869 480.782504 
L 452.023925 478.310158 
L 454.286697 478.310158 
L 455.058186 475.099112 
L 455.838292 469.576639 
L 458.230307 469.576639 
L 459.044878 464.907503 
L 460.699867 460.223058 
L 461.540286 458.613458 
L 462.389322 452.451447 
L 464.113241 452.451447 
L 465.871625 443.083582 
L 466.763741 440.886792 
L 467.664473 436.149977 
L 468.573822 436.149977 
L 469.491786 431.695162 
L 470.418367 424.328695 
L 471.353564 424.328695 
L 472.297378 419.101887 
L 473.249807 411.41826 
L 474.210853 406.383368 
L 475.180514 403.807365 
L 476.158792 393.467983 
L 477.145686 391.148723 
L 478.141197 387.658041 
L 479.145323 377.410873 
L 480.158066 377.410873 
L 481.179425 372.634577 
L 482.2094 366.159128 
L 483.247991 362.49683 
L 484.295198 360.208188 
L 485.350861 355.463654 
L 487.486082 340.296342 
L 488.565369 335.918071 
L 489.652755 333.736589 
L 492.970004 333.736589 
L 494.097165 332.702761 
L 495.236866 330.763779 
L 496.390314 327.974357 
L 497.558736 327.187163 
L 499.945272 327.187163 
L 501.165596 324.370878 
L 502.405234 324.370878 
L 503.664943 326.552359 
L 507.568745 326.552359 
L 508.911614 330.945939 
L 510.274748 328.260473 
L 511.657986 330.71751 
L 513.061329 327.951052 
L 514.484776 330.316237 
L 515.928328 329.648139 
L 521.903578 329.648139 
L 523.447651 327.043543 
L 525.011829 327.043543 
L 526.596111 321.607237 
L 529.824989 321.607237 
L 534.819089 313.661627 
L 538.249011 313.661627 
L 539.994129 308.457783 
L 541.759351 308.457783 
L 543.544678 309.491611 
L 547.175644 309.491611 
L 549.021283 311.430593 
L 550.887028 311.656708 
L 552.772876 311.656708 
L 554.678829 309.214979 
L 556.604886 304.499918 
L 558.551048 304.499918 
L 560.517314 302.226584 
L 562.503685 302.226584 
L 564.51016 299.575695 
L 566.536739 299.575695 
L 568.583423 296.85185 
L 570.650211 296.85185 
L 572.737104 297.481242 
L 576.971203 297.481242 
L 579.118408 294.905239 
L 581.285719 292.091746 
L 583.473133 287.162363 
L 585.680653 285.042116 
L 590.156004 285.042116 
L 592.423836 285.729574 
L 594.711773 287.271625 
L 597.019814 284.636801 
L 599.34796 287.008231 
L 604.064564 282.415638 
L 606.453023 283.12629 
L 608.861586 280.564367 
L 611.290254 278.153256 
L 613.739026 272.961454 
L 616.207903 276.115555 
L 618.696883 276.115555 
L 621.205969 280.049094 
L 623.735158 280.049094 
L 626.284453 284.745444 
L 628.853851 282.640506 
L 631.443354 285.290584 
L 634.052961 280.351891 
L 636.682673 280.898596 
L 639.332489 275.955049 
L 642.00241 273.482704 
L 644.692435 276.249162 
L 647.402564 274.69153 
L 650.132798 277.436134 
L 652.883136 278.797588 
L 655.653579 281.521432 
L 658.444126 283.618126 
L 661.254778 281.314176 
L 664.085533 281.657527 
L 666.936394 279.52967 
L 669.807358 276.996404 
L 672.698428 277.243514 
L 675.609601 280.744225 
L 678.540879 280.744225 
L 681.492261 284.935771 
L 684.463748 284.935771 
L 687.455339 289.805204 
L 690.467035 289.805204 
L 693.498835 290.090909 
L 696.550739 295.625646 
L 699.622748 296.561207 
L 702.714861 300.967948 
L 705.827079 303.658869 
L 708.959401 303.658869 
L 712.111828 308.353978 
L 715.284358 310.626287 
L 721.689733 315.764213 
L 724.922578 320.830229 
L 728.175526 323.363495 
L 731.448579 327.757075 
L 734.741736 330.12226 
L 738.054998 330.12226 
L 741.388364 332.563988 
L 744.742397 332.563988 
L 748.118469 334.867939 
L 751.517614 346.647939 
L 754.939744 353.850655 
L 758.38379 353.850655 
L 761.847825 356.231149 
L 765.3292 365.737501 
L 768.824677 373.165203 
L 772.330554 384.761499 
L 775.842803 389.674428 
L 775.842803 389.674428 
" style="fill:none;stroke:#000080;stroke-linecap:square;stroke-width:4.0;"/>
   </g>
   <g id="line2d_2">
    <path clip-path="url(#pe2227c0ff5)" d="M 108 404.8 
L 777.6 404.8 
" style="fill:none;stroke:#808080;stroke-linecap:square;stroke-width:4.0;"/>
   </g>
   <g id="line2d_3">
    <path clip-path="url(#pe2227c0ff5)" d="M 390.363134 504 
L 390.363134 57.6 
" style="fill:none;stroke:#000000;stroke-dasharray:6.000000,6.000000;stroke-dashoffset:0.0;stroke-width:3.0;"/>
   </g>
   <g id="line2d_4">
    <path clip-path="url(#pe2227c0ff5)" d="M 496.390314 504 
L 496.390314 57.6 
" style="fill:none;stroke:#000000;stroke-dasharray:6.000000,6.000000;stroke-dashoffset:0.0;stroke-width:3.0;"/>
   </g>
   <g id="patch_3">
    <path d="M 108 504 
L 108 57.6 
" style="fill:none;stroke:#000000;stroke-linecap:square;stroke-linejoin:miter;"/>
   </g>
   <g id="patch_4">
    <path d="M 108 504 
L 777.6 504 
" style="fill:none;stroke:#000000;stroke-linecap:square;stroke-linejoin:miter;"/>
   </g>
   <g id="matplotlib.axis_1">
    <g id="text_1">
     <!-- Alongshore Direction of Continental Shelf -->
     <defs>
      <path d="M 18.3125 70.21875 
L 18.3125 54.6875 
L 36.8125 54.6875 
L 36.8125 47.703125 
L 18.3125 47.703125 
L 18.3125 18.015625 
Q 18.3125 11.328125 20.140625 9.421875 
Q 21.96875 7.515625 27.59375 7.515625 
L 36.8125 7.515625 
L 36.8125 0 
L 27.59375 0 
Q 17.1875 0 13.234375 3.875 
Q 9.28125 7.765625 9.28125 18.015625 
L 9.28125 47.703125 
L 2.6875 47.703125 
L 2.6875 54.6875 
L 9.28125 54.6875 
L 9.28125 70.21875 
z
" id="BitstreamVeraSans-Roman-74"/>
      <path d="M 34.1875 63.1875 
L 20.796875 26.90625 
L 47.609375 26.90625 
z
M 28.609375 72.90625 
L 39.796875 72.90625 
L 67.578125 0 
L 57.328125 0 
L 50.6875 18.703125 
L 17.828125 18.703125 
L 11.1875 0 
L 0.78125 0 
z
" id="BitstreamVeraSans-Roman-41"/>
      <path id="BitstreamVeraSans-Roman-20"/>
      <path d="M 9.421875 54.6875 
L 18.40625 54.6875 
L 18.40625 0 
L 9.421875 0 
z
M 9.421875 75.984375 
L 18.40625 75.984375 
L 18.40625 64.59375 
L 9.421875 64.59375 
z
" id="BitstreamVeraSans-Roman-69"/>
      <path d="M 30.609375 48.390625 
Q 23.390625 48.390625 19.1875 42.75 
Q 14.984375 37.109375 14.984375 27.296875 
Q 14.984375 17.484375 19.15625 11.84375 
Q 23.34375 6.203125 30.609375 6.203125 
Q 37.796875 6.203125 41.984375 11.859375 
Q 46.1875 17.53125 46.1875 27.296875 
Q 46.1875 37.015625 41.984375 42.703125 
Q 37.796875 48.390625 30.609375 48.390625 
M 30.609375 56 
Q 42.328125 56 49.015625 48.375 
Q 55.71875 40.765625 55.71875 27.296875 
Q 55.71875 13.875 49.015625 6.21875 
Q 42.328125 -1.421875 30.609375 -1.421875 
Q 18.84375 -1.421875 12.171875 6.21875 
Q 5.515625 13.875 5.515625 27.296875 
Q 5.515625 40.765625 12.171875 48.375 
Q 18.84375 56 30.609375 56 
" id="BitstreamVeraSans-Roman-6f"/>
      <path d="M 9.421875 75.984375 
L 18.40625 75.984375 
L 18.40625 0 
L 9.421875 0 
z
" id="BitstreamVeraSans-Roman-6c"/>
      <path d="M 64.40625 67.28125 
L 64.40625 56.890625 
Q 59.421875 61.53125 53.78125 63.8125 
Q 48.140625 66.109375 41.796875 66.109375 
Q 29.296875 66.109375 22.65625 58.46875 
Q 16.015625 50.828125 16.015625 36.375 
Q 16.015625 21.96875 22.65625 14.328125 
Q 29.296875 6.6875 41.796875 6.6875 
Q 48.140625 6.6875 53.78125 8.984375 
Q 59.421875 11.28125 64.40625 15.921875 
L 64.40625 5.609375 
Q 59.234375 2.09375 53.4375 0.328125 
Q 47.65625 -1.421875 41.21875 -1.421875 
Q 24.65625 -1.421875 15.125 8.703125 
Q 5.609375 18.84375 5.609375 36.375 
Q 5.609375 53.953125 15.125 64.078125 
Q 24.65625 74.21875 41.21875 74.21875 
Q 47.75 74.21875 53.53125 72.484375 
Q 59.328125 70.75 64.40625 67.28125 
" id="BitstreamVeraSans-Roman-43"/>
      <path d="M 54.890625 33.015625 
L 54.890625 0 
L 45.90625 0 
L 45.90625 32.71875 
Q 45.90625 40.484375 42.875 44.328125 
Q 39.84375 48.1875 33.796875 48.1875 
Q 26.515625 48.1875 22.3125 43.546875 
Q 18.109375 38.921875 18.109375 30.90625 
L 18.109375 0 
L 9.078125 0 
L 9.078125 54.6875 
L 18.109375 54.6875 
L 18.109375 46.1875 
Q 21.34375 51.125 25.703125 53.5625 
Q 30.078125 56 35.796875 56 
Q 45.21875 56 50.046875 50.171875 
Q 54.890625 44.34375 54.890625 33.015625 
" id="BitstreamVeraSans-Roman-6e"/>
      <path d="M 37.109375 75.984375 
L 37.109375 68.5 
L 28.515625 68.5 
Q 23.6875 68.5 21.796875 66.546875 
Q 19.921875 64.59375 19.921875 59.515625 
L 19.921875 54.6875 
L 34.71875 54.6875 
L 34.71875 47.703125 
L 19.921875 47.703125 
L 19.921875 0 
L 10.890625 0 
L 10.890625 47.703125 
L 2.296875 47.703125 
L 2.296875 54.6875 
L 10.890625 54.6875 
L 10.890625 58.5 
Q 10.890625 67.625 15.140625 71.796875 
Q 19.390625 75.984375 28.609375 75.984375 
z
" id="BitstreamVeraSans-Roman-66"/>
      <path d="M 41.109375 46.296875 
Q 39.59375 47.171875 37.8125 47.578125 
Q 36.03125 48 33.890625 48 
Q 26.265625 48 22.1875 43.046875 
Q 18.109375 38.09375 18.109375 28.8125 
L 18.109375 0 
L 9.078125 0 
L 9.078125 54.6875 
L 18.109375 54.6875 
L 18.109375 46.1875 
Q 20.953125 51.171875 25.484375 53.578125 
Q 30.03125 56 36.53125 56 
Q 37.453125 56 38.578125 55.875 
Q 39.703125 55.765625 41.0625 55.515625 
z
" id="BitstreamVeraSans-Roman-72"/>
      <path d="M 44.28125 53.078125 
L 44.28125 44.578125 
Q 40.484375 46.53125 36.375 47.5 
Q 32.28125 48.484375 27.875 48.484375 
Q 21.1875 48.484375 17.84375 46.4375 
Q 14.5 44.390625 14.5 40.28125 
Q 14.5 37.15625 16.890625 35.375 
Q 19.28125 33.59375 26.515625 31.984375 
L 29.59375 31.296875 
Q 39.15625 29.25 43.1875 25.515625 
Q 47.21875 21.78125 47.21875 15.09375 
Q 47.21875 7.46875 41.1875 3.015625 
Q 35.15625 -1.421875 24.609375 -1.421875 
Q 20.21875 -1.421875 15.453125 -0.5625 
Q 10.6875 0.296875 5.421875 2 
L 5.421875 11.28125 
Q 10.40625 8.6875 15.234375 7.390625 
Q 20.0625 6.109375 24.8125 6.109375 
Q 31.15625 6.109375 34.5625 8.28125 
Q 37.984375 10.453125 37.984375 14.40625 
Q 37.984375 18.0625 35.515625 20.015625 
Q 33.0625 21.96875 24.703125 23.78125 
L 21.578125 24.515625 
Q 13.234375 26.265625 9.515625 29.90625 
Q 5.8125 33.546875 5.8125 39.890625 
Q 5.8125 47.609375 11.28125 51.796875 
Q 16.75 56 26.8125 56 
Q 31.78125 56 36.171875 55.265625 
Q 40.578125 54.546875 44.28125 53.078125 
" id="BitstreamVeraSans-Roman-73"/>
      <path d="M 19.671875 64.796875 
L 19.671875 8.109375 
L 31.59375 8.109375 
Q 46.6875 8.109375 53.6875 14.9375 
Q 60.6875 21.78125 60.6875 36.53125 
Q 60.6875 51.171875 53.6875 57.984375 
Q 46.6875 64.796875 31.59375 64.796875 
z
M 9.8125 72.90625 
L 30.078125 72.90625 
Q 51.265625 72.90625 61.171875 64.09375 
Q 71.09375 55.28125 71.09375 36.53125 
Q 71.09375 17.671875 61.125 8.828125 
Q 51.171875 0 30.078125 0 
L 9.8125 0 
z
" id="BitstreamVeraSans-Roman-44"/>
      <path d="M 48.78125 52.59375 
L 48.78125 44.1875 
Q 44.96875 46.296875 41.140625 47.34375 
Q 37.3125 48.390625 33.40625 48.390625 
Q 24.65625 48.390625 19.8125 42.84375 
Q 14.984375 37.3125 14.984375 27.296875 
Q 14.984375 17.28125 19.8125 11.734375 
Q 24.65625 6.203125 33.40625 6.203125 
Q 37.3125 6.203125 41.140625 7.25 
Q 44.96875 8.296875 48.78125 10.40625 
L 48.78125 2.09375 
Q 45.015625 0.34375 40.984375 -0.53125 
Q 36.96875 -1.421875 32.421875 -1.421875 
Q 20.0625 -1.421875 12.78125 6.34375 
Q 5.515625 14.109375 5.515625 27.296875 
Q 5.515625 40.671875 12.859375 48.328125 
Q 20.21875 56 33.015625 56 
Q 37.15625 56 41.109375 55.140625 
Q 45.0625 54.296875 48.78125 52.59375 
" id="BitstreamVeraSans-Roman-63"/>
      <path d="M 54.890625 33.015625 
L 54.890625 0 
L 45.90625 0 
L 45.90625 32.71875 
Q 45.90625 40.484375 42.875 44.328125 
Q 39.84375 48.1875 33.796875 48.1875 
Q 26.515625 48.1875 22.3125 43.546875 
Q 18.109375 38.921875 18.109375 30.90625 
L 18.109375 0 
L 9.078125 0 
L 9.078125 75.984375 
L 18.109375 75.984375 
L 18.109375 46.1875 
Q 21.34375 51.125 25.703125 53.5625 
Q 30.078125 56 35.796875 56 
Q 45.21875 56 50.046875 50.171875 
Q 54.890625 44.34375 54.890625 33.015625 
" id="BitstreamVeraSans-Roman-68"/>
      <path d="M 56.203125 29.59375 
L 56.203125 25.203125 
L 14.890625 25.203125 
Q 15.484375 15.921875 20.484375 11.0625 
Q 25.484375 6.203125 34.421875 6.203125 
Q 39.59375 6.203125 44.453125 7.46875 
Q 49.3125 8.734375 54.109375 11.28125 
L 54.109375 2.78125 
Q 49.265625 0.734375 44.1875 -0.34375 
Q 39.109375 -1.421875 33.890625 -1.421875 
Q 20.796875 -1.421875 13.15625 6.1875 
Q 5.515625 13.8125 5.515625 26.8125 
Q 5.515625 40.234375 12.765625 48.109375 
Q 20.015625 56 32.328125 56 
Q 43.359375 56 49.78125 48.890625 
Q 56.203125 41.796875 56.203125 29.59375 
M 47.21875 32.234375 
Q 47.125 39.59375 43.09375 43.984375 
Q 39.0625 48.390625 32.421875 48.390625 
Q 24.90625 48.390625 20.390625 44.140625 
Q 15.875 39.890625 15.1875 32.171875 
z
" id="BitstreamVeraSans-Roman-65"/>
      <path d="M 45.40625 27.984375 
Q 45.40625 37.75 41.375 43.109375 
Q 37.359375 48.484375 30.078125 48.484375 
Q 22.859375 48.484375 18.828125 43.109375 
Q 14.796875 37.75 14.796875 27.984375 
Q 14.796875 18.265625 18.828125 12.890625 
Q 22.859375 7.515625 30.078125 7.515625 
Q 37.359375 7.515625 41.375 12.890625 
Q 45.40625 18.265625 45.40625 27.984375 
M 54.390625 6.78125 
Q 54.390625 -7.171875 48.1875 -13.984375 
Q 42 -20.796875 29.203125 -20.796875 
Q 24.46875 -20.796875 20.265625 -20.09375 
Q 16.0625 -19.390625 12.109375 -17.921875 
L 12.109375 -9.1875 
Q 16.0625 -11.328125 19.921875 -12.34375 
Q 23.78125 -13.375 27.78125 -13.375 
Q 36.625 -13.375 41.015625 -8.765625 
Q 45.40625 -4.15625 45.40625 5.171875 
L 45.40625 9.625 
Q 42.625 4.78125 38.28125 2.390625 
Q 33.9375 0 27.875 0 
Q 17.828125 0 11.671875 7.65625 
Q 5.515625 15.328125 5.515625 27.984375 
Q 5.515625 40.671875 11.671875 48.328125 
Q 17.828125 56 27.875 56 
Q 33.9375 56 38.28125 53.609375 
Q 42.625 51.21875 45.40625 46.390625 
L 45.40625 54.6875 
L 54.390625 54.6875 
z
" id="BitstreamVeraSans-Roman-67"/>
      <path d="M 34.28125 27.484375 
Q 23.390625 27.484375 19.1875 25 
Q 14.984375 22.515625 14.984375 16.5 
Q 14.984375 11.71875 18.140625 8.90625 
Q 21.296875 6.109375 26.703125 6.109375 
Q 34.1875 6.109375 38.703125 11.40625 
Q 43.21875 16.703125 43.21875 25.484375 
L 43.21875 27.484375 
z
M 52.203125 31.203125 
L 52.203125 0 
L 43.21875 0 
L 43.21875 8.296875 
Q 40.140625 3.328125 35.546875 0.953125 
Q 30.953125 -1.421875 24.3125 -1.421875 
Q 15.921875 -1.421875 10.953125 3.296875 
Q 6 8.015625 6 15.921875 
Q 6 25.140625 12.171875 29.828125 
Q 18.359375 34.515625 30.609375 34.515625 
L 43.21875 34.515625 
L 43.21875 35.40625 
Q 43.21875 41.609375 39.140625 45 
Q 35.0625 48.390625 27.6875 48.390625 
Q 23 48.390625 18.546875 47.265625 
Q 14.109375 46.140625 10.015625 43.890625 
L 10.015625 52.203125 
Q 14.9375 54.109375 19.578125 55.046875 
Q 24.21875 56 28.609375 56 
Q 40.484375 56 46.34375 49.84375 
Q 52.203125 43.703125 52.203125 31.203125 
" id="BitstreamVeraSans-Roman-61"/>
      <path d="M 53.515625 70.515625 
L 53.515625 60.890625 
Q 47.90625 63.578125 42.921875 64.890625 
Q 37.9375 66.21875 33.296875 66.21875 
Q 25.25 66.21875 20.875 63.09375 
Q 16.5 59.96875 16.5 54.203125 
Q 16.5 49.359375 19.40625 46.890625 
Q 22.3125 44.4375 30.421875 42.921875 
L 36.375 41.703125 
Q 47.40625 39.59375 52.65625 34.296875 
Q 57.90625 29 57.90625 20.125 
Q 57.90625 9.515625 50.796875 4.046875 
Q 43.703125 -1.421875 29.984375 -1.421875 
Q 24.8125 -1.421875 18.96875 -0.25 
Q 13.140625 0.921875 6.890625 3.21875 
L 6.890625 13.375 
Q 12.890625 10.015625 18.65625 8.296875 
Q 24.421875 6.59375 29.984375 6.59375 
Q 38.421875 6.59375 43.015625 9.90625 
Q 47.609375 13.234375 47.609375 19.390625 
Q 47.609375 24.75 44.3125 27.78125 
Q 41.015625 30.8125 33.5 32.328125 
L 27.484375 33.5 
Q 16.453125 35.6875 11.515625 40.375 
Q 6.59375 45.0625 6.59375 53.421875 
Q 6.59375 63.09375 13.40625 68.65625 
Q 20.21875 74.21875 32.171875 74.21875 
Q 37.3125 74.21875 42.625 73.28125 
Q 47.953125 72.359375 53.515625 70.515625 
" id="BitstreamVeraSans-Roman-53"/>
     </defs>
     <g transform="translate(277.18125 521.1575)scale(0.16 -0.16)">
      <use xlink:href="#BitstreamVeraSans-Roman-41"/>
      <use x="68.408203125" xlink:href="#BitstreamVeraSans-Roman-6c"/>
      <use x="96.19140625" xlink:href="#BitstreamVeraSans-Roman-6f"/>
      <use x="157.373046875" xlink:href="#BitstreamVeraSans-Roman-6e"/>
      <use x="220.751953125" xlink:href="#BitstreamVeraSans-Roman-67"/>
      <use x="284.228515625" xlink:href="#BitstreamVeraSans-Roman-73"/>
      <use x="336.328125" xlink:href="#BitstreamVeraSans-Roman-68"/>
      <use x="399.70703125" xlink:href="#BitstreamVeraSans-Roman-6f"/>
      <use x="460.888671875" xlink:href="#BitstreamVeraSans-Roman-72"/>
      <use x="501.970703125" xlink:href="#BitstreamVeraSans-Roman-65"/>
      <use x="563.494140625" xlink:href="#BitstreamVeraSans-Roman-20"/>
      <use x="595.28125" xlink:href="#BitstreamVeraSans-Roman-44"/>
      <use x="672.283203125" xlink:href="#BitstreamVeraSans-Roman-69"/>
      <use x="700.06640625" xlink:href="#BitstreamVeraSans-Roman-72"/>
      <use x="741.1484375" xlink:href="#BitstreamVeraSans-Roman-65"/>
      <use x="802.671875" xlink:href="#BitstreamVeraSans-Roman-63"/>
      <use x="857.65234375" xlink:href="#BitstreamVeraSans-Roman-74"/>
      <use x="896.861328125" xlink:href="#BitstreamVeraSans-Roman-69"/>
      <use x="924.64453125" xlink:href="#BitstreamVeraSans-Roman-6f"/>
      <use x="985.826171875" xlink:href="#BitstreamVeraSans-Roman-6e"/>
      <use x="1049.205078125" xlink:href="#BitstreamVeraSans-Roman-20"/>
      <use x="1080.9921875" xlink:href="#BitstreamVeraSans-Roman-6f"/>
      <use x="1142.173828125" xlink:href="#BitstreamVeraSans-Roman-66"/>
      <use x="1177.37890625" xlink:href="#BitstreamVeraSans-Roman-20"/>
      <use x="1209.166015625" xlink:href="#BitstreamVeraSans-Roman-43"/>
      <use x="1278.990234375" xlink:href="#BitstreamVeraSans-Roman-6f"/>
      <use x="1340.171875" xlink:href="#BitstreamVeraSans-Roman-6e"/>
      <use x="1403.55078125" xlink:href="#BitstreamVeraSans-Roman-74"/>
      <use x="1442.759765625" xlink:href="#BitstreamVeraSans-Roman-69"/>
      <use x="1470.54296875" xlink:href="#BitstreamVeraSans-Roman-6e"/>
      <use x="1533.921875" xlink:href="#BitstreamVeraSans-Roman-65"/>
      <use x="1595.4453125" xlink:href="#BitstreamVeraSans-Roman-6e"/>
      <use x="1658.82421875" xlink:href="#BitstreamVeraSans-Roman-74"/>
      <use x="1698.033203125" xlink:href="#BitstreamVeraSans-Roman-61"/>
      <use x="1759.3125" xlink:href="#BitstreamVeraSans-Roman-6c"/>
      <use x="1787.095703125" xlink:href="#BitstreamVeraSans-Roman-20"/>
      <use x="1818.8828125" xlink:href="#BitstreamVeraSans-Roman-53"/>
      <use x="1882.359375" xlink:href="#BitstreamVeraSans-Roman-68"/>
      <use x="1945.73828125" xlink:href="#BitstreamVeraSans-Roman-65"/>
      <use x="2007.26171875" xlink:href="#BitstreamVeraSans-Roman-6c"/>
      <use x="2035.044921875" xlink:href="#BitstreamVeraSans-Roman-66"/>
     </g>
    </g>
   </g>
   <g id="matplotlib.axis_2">
    <g id="text_2">
     <!-- Volume of Upwelled Water over Shelf -->
     <defs>
      <path d="M 45.40625 46.390625 
L 45.40625 75.984375 
L 54.390625 75.984375 
L 54.390625 0 
L 45.40625 0 
L 45.40625 8.203125 
Q 42.578125 3.328125 38.25 0.953125 
Q 33.9375 -1.421875 27.875 -1.421875 
Q 17.96875 -1.421875 11.734375 6.484375 
Q 5.515625 14.40625 5.515625 27.296875 
Q 5.515625 40.1875 11.734375 48.09375 
Q 17.96875 56 27.875 56 
Q 33.9375 56 38.25 53.625 
Q 42.578125 51.265625 45.40625 46.390625 
M 14.796875 27.296875 
Q 14.796875 17.390625 18.875 11.75 
Q 22.953125 6.109375 30.078125 6.109375 
Q 37.203125 6.109375 41.296875 11.75 
Q 45.40625 17.390625 45.40625 27.296875 
Q 45.40625 37.203125 41.296875 42.84375 
Q 37.203125 48.484375 30.078125 48.484375 
Q 22.953125 48.484375 18.875 42.84375 
Q 14.796875 37.203125 14.796875 27.296875 
" id="BitstreamVeraSans-Roman-64"/>
      <path d="M 2.984375 54.6875 
L 12.5 54.6875 
L 29.59375 8.796875 
L 46.6875 54.6875 
L 56.203125 54.6875 
L 35.6875 0 
L 23.484375 0 
z
" id="BitstreamVeraSans-Roman-76"/>
      <path d="M 4.203125 54.6875 
L 13.1875 54.6875 
L 24.421875 12.015625 
L 35.59375 54.6875 
L 46.1875 54.6875 
L 57.421875 12.015625 
L 68.609375 54.6875 
L 77.59375 54.6875 
L 63.28125 0 
L 52.6875 0 
L 40.921875 44.828125 
L 29.109375 0 
L 18.5 0 
z
" id="BitstreamVeraSans-Roman-77"/>
      <path d="M 8.5 21.578125 
L 8.5 54.6875 
L 17.484375 54.6875 
L 17.484375 21.921875 
Q 17.484375 14.15625 20.5 10.265625 
Q 23.53125 6.390625 29.59375 6.390625 
Q 36.859375 6.390625 41.078125 11.03125 
Q 45.3125 15.671875 45.3125 23.6875 
L 45.3125 54.6875 
L 54.296875 54.6875 
L 54.296875 0 
L 45.3125 0 
L 45.3125 8.40625 
Q 42.046875 3.421875 37.71875 1 
Q 33.40625 -1.421875 27.6875 -1.421875 
Q 18.265625 -1.421875 13.375 4.4375 
Q 8.5 10.296875 8.5 21.578125 
" id="BitstreamVeraSans-Roman-75"/>
      <path d="M 18.109375 8.203125 
L 18.109375 -20.796875 
L 9.078125 -20.796875 
L 9.078125 54.6875 
L 18.109375 54.6875 
L 18.109375 46.390625 
Q 20.953125 51.265625 25.265625 53.625 
Q 29.59375 56 35.59375 56 
Q 45.5625 56 51.78125 48.09375 
Q 58.015625 40.1875 58.015625 27.296875 
Q 58.015625 14.40625 51.78125 6.484375 
Q 45.5625 -1.421875 35.59375 -1.421875 
Q 29.59375 -1.421875 25.265625 0.953125 
Q 20.953125 3.328125 18.109375 8.203125 
M 48.6875 27.296875 
Q 48.6875 37.203125 44.609375 42.84375 
Q 40.53125 48.484375 33.40625 48.484375 
Q 26.265625 48.484375 22.1875 42.84375 
Q 18.109375 37.203125 18.109375 27.296875 
Q 18.109375 17.390625 22.1875 11.75 
Q 26.265625 6.109375 33.40625 6.109375 
Q 40.53125 6.109375 44.609375 11.75 
Q 48.6875 17.390625 48.6875 27.296875 
" id="BitstreamVeraSans-Roman-70"/>
      <path d="M 8.6875 72.90625 
L 18.609375 72.90625 
L 18.609375 28.609375 
Q 18.609375 16.890625 22.84375 11.734375 
Q 27.09375 6.59375 36.625 6.59375 
Q 46.09375 6.59375 50.34375 11.734375 
Q 54.59375 16.890625 54.59375 28.609375 
L 54.59375 72.90625 
L 64.5 72.90625 
L 64.5 27.390625 
Q 64.5 13.140625 57.4375 5.859375 
Q 50.390625 -1.421875 36.625 -1.421875 
Q 22.796875 -1.421875 15.734375 5.859375 
Q 8.6875 13.140625 8.6875 27.390625 
z
" id="BitstreamVeraSans-Roman-55"/>
      <path d="M 28.609375 0 
L 0.78125 72.90625 
L 11.078125 72.90625 
L 34.1875 11.53125 
L 57.328125 72.90625 
L 67.578125 72.90625 
L 39.796875 0 
z
" id="BitstreamVeraSans-Roman-56"/>
      <path d="M 52 44.1875 
Q 55.375 50.25 60.0625 53.125 
Q 64.75 56 71.09375 56 
Q 79.640625 56 84.28125 50.015625 
Q 88.921875 44.046875 88.921875 33.015625 
L 88.921875 0 
L 79.890625 0 
L 79.890625 32.71875 
Q 79.890625 40.578125 77.09375 44.375 
Q 74.3125 48.1875 68.609375 48.1875 
Q 61.625 48.1875 57.5625 43.546875 
Q 53.515625 38.921875 53.515625 30.90625 
L 53.515625 0 
L 44.484375 0 
L 44.484375 32.71875 
Q 44.484375 40.625 41.703125 44.40625 
Q 38.921875 48.1875 33.109375 48.1875 
Q 26.21875 48.1875 22.15625 43.53125 
Q 18.109375 38.875 18.109375 30.90625 
L 18.109375 0 
L 9.078125 0 
L 9.078125 54.6875 
L 18.109375 54.6875 
L 18.109375 46.1875 
Q 21.1875 51.21875 25.484375 53.609375 
Q 29.78125 56 35.6875 56 
Q 41.65625 56 45.828125 52.96875 
Q 50 49.953125 52 44.1875 
" id="BitstreamVeraSans-Roman-6d"/>
      <path d="M 3.328125 72.90625 
L 13.28125 72.90625 
L 28.609375 11.28125 
L 43.890625 72.90625 
L 54.984375 72.90625 
L 70.3125 11.28125 
L 85.59375 72.90625 
L 95.609375 72.90625 
L 77.296875 0 
L 64.890625 0 
L 49.515625 63.28125 
L 33.984375 0 
L 21.578125 0 
z
" id="BitstreamVeraSans-Roman-57"/>
     </defs>
     <g transform="translate(99.6725 430.53875)rotate(-90.0)scale(0.16 -0.16)">
      <use xlink:href="#BitstreamVeraSans-Roman-56"/>
      <use x="68.298828125" xlink:href="#BitstreamVeraSans-Roman-6f"/>
      <use x="129.48046875" xlink:href="#BitstreamVeraSans-Roman-6c"/>
      <use x="157.263671875" xlink:href="#BitstreamVeraSans-Roman-75"/>
      <use x="220.642578125" xlink:href="#BitstreamVeraSans-Roman-6d"/>
      <use x="318.0546875" xlink:href="#BitstreamVeraSans-Roman-65"/>
      <use x="379.578125" xlink:href="#BitstreamVeraSans-Roman-20"/>
      <use x="411.365234375" xlink:href="#BitstreamVeraSans-Roman-6f"/>
      <use x="472.546875" xlink:href="#BitstreamVeraSans-Roman-66"/>
      <use x="507.751953125" xlink:href="#BitstreamVeraSans-Roman-20"/>
      <use x="539.5390625" xlink:href="#BitstreamVeraSans-Roman-55"/>
      <use x="612.732421875" xlink:href="#BitstreamVeraSans-Roman-70"/>
      <use x="676.208984375" xlink:href="#BitstreamVeraSans-Roman-77"/>
      <use x="757.99609375" xlink:href="#BitstreamVeraSans-Roman-65"/>
      <use x="819.51953125" xlink:href="#BitstreamVeraSans-Roman-6c"/>
      <use x="847.302734375" xlink:href="#BitstreamVeraSans-Roman-6c"/>
      <use x="875.0859375" xlink:href="#BitstreamVeraSans-Roman-65"/>
      <use x="936.609375" xlink:href="#BitstreamVeraSans-Roman-64"/>
      <use x="1000.0859375" xlink:href="#BitstreamVeraSans-Roman-20"/>
      <use x="1031.873046875" xlink:href="#BitstreamVeraSans-Roman-57"/>
      <use x="1130.65625" xlink:href="#BitstreamVeraSans-Roman-61"/>
      <use x="1191.935546875" xlink:href="#BitstreamVeraSans-Roman-74"/>
      <use x="1231.14453125" xlink:href="#BitstreamVeraSans-Roman-65"/>
      <use x="1292.66796875" xlink:href="#BitstreamVeraSans-Roman-72"/>
      <use x="1333.78125" xlink:href="#BitstreamVeraSans-Roman-20"/>
      <use x="1365.568359375" xlink:href="#BitstreamVeraSans-Roman-6f"/>
      <use x="1426.75" xlink:href="#BitstreamVeraSans-Roman-76"/>
      <use x="1485.9296875" xlink:href="#BitstreamVeraSans-Roman-65"/>
      <use x="1547.453125" xlink:href="#BitstreamVeraSans-Roman-72"/>
      <use x="1588.56640625" xlink:href="#BitstreamVeraSans-Roman-20"/>
      <use x="1620.353515625" xlink:href="#BitstreamVeraSans-Roman-53"/>
      <use x="1683.830078125" xlink:href="#BitstreamVeraSans-Roman-68"/>
      <use x="1747.208984375" xlink:href="#BitstreamVeraSans-Roman-65"/>
      <use x="1808.732421875" xlink:href="#BitstreamVeraSans-Roman-6c"/>
      <use x="1836.515625" xlink:href="#BitstreamVeraSans-Roman-66"/>
     </g>
    </g>
   </g>
   <g id="text_3">
    <!-- Advection: At A Later Time, Just Before Relaxation Stage -->
    <defs>
     <path d="M 44.390625 34.1875 
Q 47.5625 33.109375 50.5625 29.59375 
Q 53.5625 26.078125 56.59375 19.921875 
L 66.609375 0 
L 56 0 
L 46.6875 18.703125 
Q 43.0625 26.03125 39.671875 28.421875 
Q 36.28125 30.8125 30.421875 30.8125 
L 19.671875 30.8125 
L 19.671875 0 
L 9.8125 0 
L 9.8125 72.90625 
L 32.078125 72.90625 
Q 44.578125 72.90625 50.734375 67.671875 
Q 56.890625 62.453125 56.890625 51.90625 
Q 56.890625 45.015625 53.6875 40.46875 
Q 50.484375 35.9375 44.390625 34.1875 
M 19.671875 64.796875 
L 19.671875 38.921875 
L 32.078125 38.921875 
Q 39.203125 38.921875 42.84375 42.21875 
Q 46.484375 45.515625 46.484375 51.90625 
Q 46.484375 58.296875 42.84375 61.546875 
Q 39.203125 64.796875 32.078125 64.796875 
z
" id="BitstreamVeraSans-Roman-52"/>
     <path d="M 11.71875 12.40625 
L 22.015625 12.40625 
L 22.015625 4 
L 14.015625 -11.625 
L 7.71875 -11.625 
L 11.71875 4 
z
" id="BitstreamVeraSans-Roman-2c"/>
     <path d="M 9.8125 72.90625 
L 19.671875 72.90625 
L 19.671875 8.296875 
L 55.171875 8.296875 
L 55.171875 0 
L 9.8125 0 
z
" id="BitstreamVeraSans-Roman-4c"/>
     <path d="M 9.8125 72.90625 
L 19.671875 72.90625 
L 19.671875 5.078125 
Q 19.671875 -8.109375 14.671875 -14.0625 
Q 9.671875 -20.015625 -1.421875 -20.015625 
L -5.171875 -20.015625 
L -5.171875 -11.71875 
L -2.09375 -11.71875 
Q 4.4375 -11.71875 7.125 -8.046875 
Q 9.8125 -4.390625 9.8125 5.078125 
z
" id="BitstreamVeraSans-Roman-4a"/>
     <path d="M 11.71875 12.40625 
L 22.015625 12.40625 
L 22.015625 0 
L 11.71875 0 
z
M 11.71875 51.703125 
L 22.015625 51.703125 
L 22.015625 39.3125 
L 11.71875 39.3125 
z
" id="BitstreamVeraSans-Roman-3a"/>
     <path d="M 19.671875 34.8125 
L 19.671875 8.109375 
L 35.5 8.109375 
Q 43.453125 8.109375 47.28125 11.40625 
Q 51.125 14.703125 51.125 21.484375 
Q 51.125 28.328125 47.28125 31.5625 
Q 43.453125 34.8125 35.5 34.8125 
z
M 19.671875 64.796875 
L 19.671875 42.828125 
L 34.28125 42.828125 
Q 41.5 42.828125 45.03125 45.53125 
Q 48.578125 48.25 48.578125 53.8125 
Q 48.578125 59.328125 45.03125 62.0625 
Q 41.5 64.796875 34.28125 64.796875 
z
M 9.8125 72.90625 
L 35.015625 72.90625 
Q 46.296875 72.90625 52.390625 68.21875 
Q 58.5 63.53125 58.5 54.890625 
Q 58.5 48.1875 55.375 44.234375 
Q 52.25 40.28125 46.1875 39.3125 
Q 53.46875 37.75 57.5 32.78125 
Q 61.53125 27.828125 61.53125 20.40625 
Q 61.53125 10.640625 54.890625 5.3125 
Q 48.25 0 35.984375 0 
L 9.8125 0 
z
" id="BitstreamVeraSans-Roman-42"/>
     <path d="M 54.890625 54.6875 
L 35.109375 28.078125 
L 55.90625 0 
L 45.3125 0 
L 29.390625 21.484375 
L 13.484375 0 
L 2.875 0 
L 24.125 28.609375 
L 4.6875 54.6875 
L 15.28125 54.6875 
L 29.78125 35.203125 
L 44.28125 54.6875 
z
" id="BitstreamVeraSans-Roman-78"/>
     <path d="M -0.296875 72.90625 
L 61.375 72.90625 
L 61.375 64.59375 
L 35.5 64.59375 
L 35.5 0 
L 25.59375 0 
L 25.59375 64.59375 
L -0.296875 64.59375 
z
" id="BitstreamVeraSans-Roman-54"/>
    </defs>
    <g transform="translate(187.58109375 52.6)scale(0.18 -0.18)">
     <use xlink:href="#BitstreamVeraSans-Roman-41"/>
     <use x="68.392578125" xlink:href="#BitstreamVeraSans-Roman-64"/>
     <use x="131.869140625" xlink:href="#BitstreamVeraSans-Roman-76"/>
     <use x="191.048828125" xlink:href="#BitstreamVeraSans-Roman-65"/>
     <use x="252.572265625" xlink:href="#BitstreamVeraSans-Roman-63"/>
     <use x="307.552734375" xlink:href="#BitstreamVeraSans-Roman-74"/>
     <use x="346.76171875" xlink:href="#BitstreamVeraSans-Roman-69"/>
     <use x="374.544921875" xlink:href="#BitstreamVeraSans-Roman-6f"/>
     <use x="435.7265625" xlink:href="#BitstreamVeraSans-Roman-6e"/>
     <use x="499.10546875" xlink:href="#BitstreamVeraSans-Roman-3a"/>
     <use x="532.796875" xlink:href="#BitstreamVeraSans-Roman-20"/>
     <use x="564.583984375" xlink:href="#BitstreamVeraSans-Roman-41"/>
     <use x="632.9765625" xlink:href="#BitstreamVeraSans-Roman-74"/>
     <use x="672.185546875" xlink:href="#BitstreamVeraSans-Roman-20"/>
     <use x="703.97265625" xlink:href="#BitstreamVeraSans-Roman-41"/>
     <use x="772.380859375" xlink:href="#BitstreamVeraSans-Roman-20"/>
     <use x="804.16796875" xlink:href="#BitstreamVeraSans-Roman-4c"/>
     <use x="859.880859375" xlink:href="#BitstreamVeraSans-Roman-61"/>
     <use x="921.16015625" xlink:href="#BitstreamVeraSans-Roman-74"/>
     <use x="960.369140625" xlink:href="#BitstreamVeraSans-Roman-65"/>
     <use x="1021.892578125" xlink:href="#BitstreamVeraSans-Roman-72"/>
     <use x="1063.005859375" xlink:href="#BitstreamVeraSans-Roman-20"/>
     <use x="1094.79296875" xlink:href="#BitstreamVeraSans-Roman-54"/>
     <use x="1155.830078125" xlink:href="#BitstreamVeraSans-Roman-69"/>
     <use x="1183.61328125" xlink:href="#BitstreamVeraSans-Roman-6d"/>
     <use x="1281.025390625" xlink:href="#BitstreamVeraSans-Roman-65"/>
     <use x="1342.548828125" xlink:href="#BitstreamVeraSans-Roman-2c"/>
     <use x="1374.3359375" xlink:href="#BitstreamVeraSans-Roman-20"/>
     <use x="1406.123046875" xlink:href="#BitstreamVeraSans-Roman-4a"/>
     <use x="1435.615234375" xlink:href="#BitstreamVeraSans-Roman-75"/>
     <use x="1498.994140625" xlink:href="#BitstreamVeraSans-Roman-73"/>
     <use x="1551.09375" xlink:href="#BitstreamVeraSans-Roman-74"/>
     <use x="1590.302734375" xlink:href="#BitstreamVeraSans-Roman-20"/>
     <use x="1622.08984375" xlink:href="#BitstreamVeraSans-Roman-42"/>
     <use x="1690.693359375" xlink:href="#BitstreamVeraSans-Roman-65"/>
     <use x="1752.216796875" xlink:href="#BitstreamVeraSans-Roman-66"/>
     <use x="1787.421875" xlink:href="#BitstreamVeraSans-Roman-6f"/>
     <use x="1848.603515625" xlink:href="#BitstreamVeraSans-Roman-72"/>
     <use x="1889.685546875" xlink:href="#BitstreamVeraSans-Roman-65"/>
     <use x="1951.208984375" xlink:href="#BitstreamVeraSans-Roman-20"/>
     <use x="1982.99609375" xlink:href="#BitstreamVeraSans-Roman-52"/>
     <use x="2052.416015625" xlink:href="#BitstreamVeraSans-Roman-65"/>
     <use x="2113.939453125" xlink:href="#BitstreamVeraSans-Roman-6c"/>
     <use x="2141.72265625" xlink:href="#BitstreamVeraSans-Roman-61"/>
     <use x="2203.001953125" xlink:href="#BitstreamVeraSans-Roman-78"/>
     <use x="2262.181640625" xlink:href="#BitstreamVeraSans-Roman-61"/>
     <use x="2323.4609375" xlink:href="#BitstreamVeraSans-Roman-74"/>
     <use x="2362.669921875" xlink:href="#BitstreamVeraSans-Roman-69"/>
     <use x="2390.453125" xlink:href="#BitstreamVeraSans-Roman-6f"/>
     <use x="2451.634765625" xlink:href="#BitstreamVeraSans-Roman-6e"/>
     <use x="2515.013671875" xlink:href="#BitstreamVeraSans-Roman-20"/>
     <use x="2546.80078125" xlink:href="#BitstreamVeraSans-Roman-53"/>
     <use x="2610.27734375" xlink:href="#BitstreamVeraSans-Roman-74"/>
     <use x="2649.486328125" xlink:href="#BitstreamVeraSans-Roman-61"/>
     <use x="2710.765625" xlink:href="#BitstreamVeraSans-Roman-67"/>
     <use x="2774.2421875" xlink:href="#BitstreamVeraSans-Roman-65"/>
    </g>
   </g>
   <g id="legend_1">
    <g id="patch_5">
     <path d="M 115 111.189375 
L 475.08 111.189375 
L 475.08 64.6 
L 115 64.6 
z
" style="fill:#ffffff;stroke:#000000;stroke-linejoin:miter;"/>
    </g>
    <g id="line2d_5">
     <path d="M 124.8 77.2 
L 144.4 77.2 
" style="fill:none;stroke:#808080;stroke-linecap:square;stroke-width:4.0;"/>
    </g>
    <g id="line2d_6"/>
    <g id="text_4">
     <!-- No Canyon Effect (Volume Difference: 0 m$^3$) -->
     <defs>
      <path d="M 9.8125 72.90625 
L 55.90625 72.90625 
L 55.90625 64.59375 
L 19.671875 64.59375 
L 19.671875 43.015625 
L 54.390625 43.015625 
L 54.390625 34.71875 
L 19.671875 34.71875 
L 19.671875 8.296875 
L 56.78125 8.296875 
L 56.78125 0 
L 9.8125 0 
z
" id="BitstreamVeraSans-Roman-45"/>
      <path d="M 31 75.875 
Q 24.46875 64.65625 21.28125 53.65625 
Q 18.109375 42.671875 18.109375 31.390625 
Q 18.109375 20.125 21.3125 9.0625 
Q 24.515625 -2 31 -13.1875 
L 23.1875 -13.1875 
Q 15.875 -1.703125 12.234375 9.375 
Q 8.59375 20.453125 8.59375 31.390625 
Q 8.59375 42.28125 12.203125 53.3125 
Q 15.828125 64.359375 23.1875 75.875 
z
" id="BitstreamVeraSans-Roman-28"/>
      <path d="M 8.015625 75.875 
L 15.828125 75.875 
Q 23.140625 64.359375 26.78125 53.3125 
Q 30.421875 42.28125 30.421875 31.390625 
Q 30.421875 20.453125 26.78125 9.375 
Q 23.140625 -1.703125 15.828125 -13.1875 
L 8.015625 -13.1875 
Q 14.5 -2 17.703125 9.0625 
Q 20.90625 20.125 20.90625 31.390625 
Q 20.90625 42.671875 17.703125 53.65625 
Q 14.5 64.65625 8.015625 75.875 
" id="BitstreamVeraSans-Roman-29"/>
      <path d="M 31.78125 66.40625 
Q 24.171875 66.40625 20.328125 58.90625 
Q 16.5 51.421875 16.5 36.375 
Q 16.5 21.390625 20.328125 13.890625 
Q 24.171875 6.390625 31.78125 6.390625 
Q 39.453125 6.390625 43.28125 13.890625 
Q 47.125 21.390625 47.125 36.375 
Q 47.125 51.421875 43.28125 58.90625 
Q 39.453125 66.40625 31.78125 66.40625 
M 31.78125 74.21875 
Q 44.046875 74.21875 50.515625 64.515625 
Q 56.984375 54.828125 56.984375 36.375 
Q 56.984375 17.96875 50.515625 8.265625 
Q 44.046875 -1.421875 31.78125 -1.421875 
Q 19.53125 -1.421875 13.0625 8.265625 
Q 6.59375 17.96875 6.59375 36.375 
Q 6.59375 54.828125 13.0625 64.515625 
Q 19.53125 74.21875 31.78125 74.21875 
" id="BitstreamVeraSans-Roman-30"/>
      <path d="M 9.8125 72.90625 
L 23.09375 72.90625 
L 55.421875 11.921875 
L 55.421875 72.90625 
L 64.984375 72.90625 
L 64.984375 0 
L 51.703125 0 
L 19.390625 60.984375 
L 19.390625 0 
L 9.8125 0 
z
" id="BitstreamVeraSans-Roman-4e"/>
      <path d="M 32.171875 -5.078125 
Q 28.375 -14.84375 24.75 -17.8125 
Q 21.140625 -20.796875 15.09375 -20.796875 
L 7.90625 -20.796875 
L 7.90625 -13.28125 
L 13.1875 -13.28125 
Q 16.890625 -13.28125 18.9375 -11.515625 
Q 21 -9.765625 23.484375 -3.21875 
L 25.09375 0.875 
L 2.984375 54.6875 
L 12.5 54.6875 
L 29.59375 11.921875 
L 46.6875 54.6875 
L 56.203125 54.6875 
z
" id="BitstreamVeraSans-Roman-79"/>
      <path d="M 9.515625 7.71875 
Q 11.859375 4.296875 15.8125 2.640625 
Q 19.78125 0.984375 24.3125 0.984375 
Q 30.125 0.984375 32.5625 5.9375 
Q 35.015625 10.890625 35.015625 17.1875 
Q 35.015625 20.015625 34.5 22.84375 
Q 33.984375 25.6875 32.765625 28.125 
Q 31.546875 30.5625 29.421875 32.03125 
Q 27.296875 33.5 24.21875 33.5 
L 17.578125 33.5 
Q 16.703125 33.5 16.703125 34.421875 
L 16.703125 35.296875 
Q 16.703125 36.078125 17.578125 36.078125 
L 23.09375 36.53125 
Q 26.609375 36.53125 28.921875 39.15625 
Q 31.25 41.796875 32.328125 45.578125 
Q 33.40625 49.359375 33.40625 52.78125 
Q 33.40625 57.5625 31.15625 60.640625 
Q 28.90625 63.71875 24.3125 63.71875 
Q 20.515625 63.71875 17.046875 62.28125 
Q 13.578125 60.84375 11.53125 57.90625 
Q 11.71875 57.953125 11.859375 57.984375 
Q 12.015625 58.015625 12.203125 58.015625 
Q 14.453125 58.015625 15.96875 56.453125 
Q 17.484375 54.890625 17.484375 52.6875 
Q 17.484375 50.53125 15.96875 48.96875 
Q 14.453125 47.40625 12.203125 47.40625 
Q 10.015625 47.40625 8.453125 48.96875 
Q 6.890625 50.53125 6.890625 52.6875 
Q 6.890625 56.984375 9.46875 60.15625 
Q 12.0625 63.328125 16.140625 64.96875 
Q 20.21875 66.609375 24.3125 66.609375 
Q 27.34375 66.609375 30.703125 65.703125 
Q 34.078125 64.796875 36.8125 63.109375 
Q 39.546875 61.421875 41.28125 58.78125 
Q 43.015625 56.15625 43.015625 52.78125 
Q 43.015625 48.578125 41.140625 45.015625 
Q 39.265625 41.453125 35.984375 38.859375 
Q 32.71875 36.28125 28.8125 35.015625 
Q 33.15625 34.1875 37.0625 31.734375 
Q 40.96875 29.296875 43.328125 25.484375 
Q 45.703125 21.6875 45.703125 17.28125 
Q 45.703125 11.765625 42.671875 7.296875 
Q 39.65625 2.828125 34.71875 0.3125 
Q 29.78125 -2.203125 24.3125 -2.203125 
Q 19.625 -2.203125 14.90625 -0.40625 
Q 10.203125 1.375 7.203125 4.9375 
Q 4.203125 8.5 4.203125 13.484375 
Q 4.203125 15.96875 5.859375 17.625 
Q 7.515625 19.28125 10.015625 19.28125 
Q 11.625 19.28125 12.96875 18.53125 
Q 14.3125 17.78125 15.0625 16.40625 
Q 15.828125 15.046875 15.828125 13.484375 
Q 15.828125 11.03125 14.109375 9.375 
Q 12.40625 7.71875 10.015625 7.71875 
z
" id="Cmr10-33"/>
     </defs>
     <g transform="translate(159.8 82.1)scale(0.14 -0.14)">
      <use transform="translate(0.0 0.109375)" xlink:href="#BitstreamVeraSans-Roman-4e"/>
      <use transform="translate(74.8046875 0.109375)" xlink:href="#BitstreamVeraSans-Roman-6f"/>
      <use transform="translate(135.986328125 0.109375)" xlink:href="#BitstreamVeraSans-Roman-20"/>
      <use transform="translate(167.7734375 0.109375)" xlink:href="#BitstreamVeraSans-Roman-43"/>
      <use transform="translate(237.59765625 0.109375)" xlink:href="#BitstreamVeraSans-Roman-61"/>
      <use transform="translate(298.876953125 0.109375)" xlink:href="#BitstreamVeraSans-Roman-6e"/>
      <use transform="translate(362.255859375 0.109375)" xlink:href="#BitstreamVeraSans-Roman-79"/>
      <use transform="translate(421.435546875 0.109375)" xlink:href="#BitstreamVeraSans-Roman-6f"/>
      <use transform="translate(482.6171875 0.109375)" xlink:href="#BitstreamVeraSans-Roman-6e"/>
      <use transform="translate(545.99609375 0.109375)" xlink:href="#BitstreamVeraSans-Roman-20"/>
      <use transform="translate(577.783203125 0.109375)" xlink:href="#BitstreamVeraSans-Roman-45"/>
      <use transform="translate(640.966796875 0.109375)" xlink:href="#BitstreamVeraSans-Roman-66"/>
      <use transform="translate(676.171875 0.109375)" xlink:href="#BitstreamVeraSans-Roman-66"/>
      <use transform="translate(711.376953125 0.109375)" xlink:href="#BitstreamVeraSans-Roman-65"/>
      <use transform="translate(772.900390625 0.109375)" xlink:href="#BitstreamVeraSans-Roman-63"/>
      <use transform="translate(827.880859375 0.109375)" xlink:href="#BitstreamVeraSans-Roman-74"/>
      <use transform="translate(867.08984375 0.109375)" xlink:href="#BitstreamVeraSans-Roman-20"/>
      <use transform="translate(898.876953125 0.109375)" xlink:href="#BitstreamVeraSans-Roman-28"/>
      <use transform="translate(937.890625 0.109375)" xlink:href="#BitstreamVeraSans-Roman-56"/>
      <use transform="translate(1006.298828125 0.109375)" xlink:href="#BitstreamVeraSans-Roman-6f"/>
      <use transform="translate(1067.48046875 0.109375)" xlink:href="#BitstreamVeraSans-Roman-6c"/>
      <use transform="translate(1095.263671875 0.109375)" xlink:href="#BitstreamVeraSans-Roman-75"/>
      <use transform="translate(1158.642578125 0.109375)" xlink:href="#BitstreamVeraSans-Roman-6d"/>
      <use transform="translate(1256.0546875 0.109375)" xlink:href="#BitstreamVeraSans-Roman-65"/>
      <use transform="translate(1317.578125 0.109375)" xlink:href="#BitstreamVeraSans-Roman-20"/>
      <use transform="translate(1349.365234375 0.109375)" xlink:href="#BitstreamVeraSans-Roman-44"/>
      <use transform="translate(1426.3671875 0.109375)" xlink:href="#BitstreamVeraSans-Roman-69"/>
      <use transform="translate(1454.150390625 0.109375)" xlink:href="#BitstreamVeraSans-Roman-66"/>
      <use transform="translate(1489.35546875 0.109375)" xlink:href="#BitstreamVeraSans-Roman-66"/>
      <use transform="translate(1524.560546875 0.109375)" xlink:href="#BitstreamVeraSans-Roman-65"/>
      <use transform="translate(1586.083984375 0.109375)" xlink:href="#BitstreamVeraSans-Roman-72"/>
      <use transform="translate(1627.197265625 0.109375)" xlink:href="#BitstreamVeraSans-Roman-65"/>
      <use transform="translate(1688.720703125 0.109375)" xlink:href="#BitstreamVeraSans-Roman-6e"/>
      <use transform="translate(1752.099609375 0.109375)" xlink:href="#BitstreamVeraSans-Roman-63"/>
      <use transform="translate(1807.080078125 0.109375)" xlink:href="#BitstreamVeraSans-Roman-65"/>
      <use transform="translate(1868.603515625 0.109375)" xlink:href="#BitstreamVeraSans-Roman-3a"/>
      <use transform="translate(1902.294921875 0.109375)" xlink:href="#BitstreamVeraSans-Roman-20"/>
      <use transform="translate(1934.08203125 0.109375)" xlink:href="#BitstreamVeraSans-Roman-30"/>
      <use transform="translate(1997.705078125 0.109375)" xlink:href="#BitstreamVeraSans-Roman-20"/>
      <use transform="translate(2029.4921875 0.109375)" xlink:href="#BitstreamVeraSans-Roman-6d"/>
      <use transform="translate(2131.3684375 38.3734375)scale(0.7)" xlink:href="#Cmr10-33"/>
      <use transform="translate(2172.74578125 0.109375)" xlink:href="#BitstreamVeraSans-Roman-29"/>
     </g>
    </g>
    <g id="line2d_7">
     <path d="M 124.8 97.777813 
L 144.4 97.777813 
" style="fill:none;stroke:#000000;stroke-dasharray:6.000000,6.000000;stroke-dashoffset:0.0;stroke-width:3.0;"/>
    </g>
    <g id="line2d_8"/>
    <g id="text_5">
     <!-- Location of Canyon Rim -->
     <g transform="translate(159.8 102.6778125)scale(0.14 -0.14)">
      <use xlink:href="#BitstreamVeraSans-Roman-4c"/>
      <use x="55.697265625" xlink:href="#BitstreamVeraSans-Roman-6f"/>
      <use x="116.87890625" xlink:href="#BitstreamVeraSans-Roman-63"/>
      <use x="171.859375" xlink:href="#BitstreamVeraSans-Roman-61"/>
      <use x="233.138671875" xlink:href="#BitstreamVeraSans-Roman-74"/>
      <use x="272.34765625" xlink:href="#BitstreamVeraSans-Roman-69"/>
      <use x="300.130859375" xlink:href="#BitstreamVeraSans-Roman-6f"/>
      <use x="361.3125" xlink:href="#BitstreamVeraSans-Roman-6e"/>
      <use x="424.69140625" xlink:href="#BitstreamVeraSans-Roman-20"/>
      <use x="456.478515625" xlink:href="#BitstreamVeraSans-Roman-6f"/>
      <use x="517.66015625" xlink:href="#BitstreamVeraSans-Roman-66"/>
      <use x="552.865234375" xlink:href="#BitstreamVeraSans-Roman-20"/>
      <use x="584.65234375" xlink:href="#BitstreamVeraSans-Roman-43"/>
      <use x="654.4765625" xlink:href="#BitstreamVeraSans-Roman-61"/>
      <use x="715.755859375" xlink:href="#BitstreamVeraSans-Roman-6e"/>
      <use x="779.134765625" xlink:href="#BitstreamVeraSans-Roman-79"/>
      <use x="838.314453125" xlink:href="#BitstreamVeraSans-Roman-6f"/>
      <use x="899.49609375" xlink:href="#BitstreamVeraSans-Roman-6e"/>
      <use x="962.875" xlink:href="#BitstreamVeraSans-Roman-20"/>
      <use x="994.662109375" xlink:href="#BitstreamVeraSans-Roman-52"/>
      <use x="1064.14453125" xlink:href="#BitstreamVeraSans-Roman-69"/>
      <use x="1091.927734375" xlink:href="#BitstreamVeraSans-Roman-6d"/>
     </g>
    </g>
   </g>
  </g>
 </g>
 <defs>
  <clipPath id="pe2227c0ff5">
   <rect height="446.4" width="669.6" x="108.0" y="57.6"/>
  </clipPath>
 </defs>
</svg>
