<?xml version="1.0" encoding="utf-8" standalone="no"?>
<!DOCTYPE svg PUBLIC "-//W3C//DTD SVG 1.1//EN"
  "http://www.w3.org/Graphics/SVG/1.1/DTD/svg11.dtd">
<!-- Created with matplotlib (http://matplotlib.org/) -->
<svg height="576pt" version="1.1" viewBox="0 0 648 576" width="648pt" xmlns="http://www.w3.org/2000/svg" xmlns:xlink="http://www.w3.org/1999/xlink">
 <defs>
  <style type="text/css">
*{stroke-linecap:butt;stroke-linejoin:round;stroke-miterlimit:100000;}
  </style>
 </defs>
 <g id="figure_1">
  <g id="patch_1">
   <path d="M 0 576 
L 648 576 
L 648 0 
L 0 0 
z
" style="fill:#ffffff;"/>
  </g>
  <g id="axes_1">
   <g id="patch_2">
    <path d="M 81 504 
L 583.2 504 
L 583.2 57.6 
L 81 57.6 
z
" style="fill:#c1bddb;"/>
   </g>
   <g id="line2d_1">
    <path clip-path="url(#p5957a58318)" d="M 82.317898 391.96307 
L 84.952085 396.800601 
L 87.581492 399.362524 
L 90.2031 398.984452 
L 92.814132 401.288403 
L 95.412158 405.896304 
L 97.995192 408.292106 
L 100.56179 410.868109 
L 110.658751 410.868109 
L 113.143698 408.292106 
L 118.068355 408.292106 
L 120.508067 410.519514 
L 144.075874 410.519514 
L 146.349724 413.109684 
L 150.852189 413.109684 
L 153.080804 410.713882 
L 155.294341 413.289885 
L 161.844481 413.289885 
L 163.997705 410.817539 
L 172.459816 410.817539 
L 174.537648 411.151499 
L 190.617484 411.151499 
L 192.559612 408.924092 
L 194.486661 408.924092 
L 196.398631 409.913382 
L 216.435139 409.913382 
L 218.16617 407.609431 
L 239.297445 407.609431 
L 240.81738 409.243308 
L 246.746335 409.243308 
L 248.190878 411.715653 
L 252.434037 411.715653 
L 255.187419 416.170468 
L 261.807001 416.170468 
L 263.085683 418.397875 
L 269.252916 418.397875 
L 270.441128 420.665527 
L 275.043192 420.665527 
L 277.253754 425.548984 
L 281.493939 425.548984 
L 282.516289 430.034416 
L 283.523441 435.070645 
L 284.515099 439.4183 
L 285.491044 441.936571 
L 286.451292 441.936571 
L 288.325803 446.886197 
L 289.241046 453.599036 
L 290.142496 454.581988 
L 291.030948 454.581988 
L 291.907264 465.288026 
L 292.772351 467.561359 
L 293.627126 471.973937 
L 294.472497 478.855172 
L 295.309326 481.220357 
L 296.138407 488.285295 
L 296.960434 493.061592 
L 297.775973 495.457394 
L 298.585439 500.187765 
L 300.186854 500.262612 
L 300.978601 498.300681 
L 302.54295 498.300681 
L 303.315432 496.226501 
L 304.081451 493.81016 
L 304.841008 493.490234 
L 305.594102 489.050728 
L 306.340735 489.050728 
L 307.080906 484.427518 
L 311.386225 484.427518 
L 312.08116 481.674682 
L 312.769634 481.674682 
L 313.451645 480.691731 
L 314.796282 480.691731 
L 315.458907 478.571484 
L 316.115069 476.974088 
L 322.321281 476.974088 
L 322.90636 474.773608 
L 323.484977 474.773608 
L 324.057133 474.439649 
L 329.912423 474.439649 
L 330.404693 476.743599 
L 330.892431 476.743599 
L 331.376825 475.754309 
L 331.859172 478.150111 
L 332.823175 478.150111 
L 333.795307 482.681469 
L 335.801003 482.681469 
L 336.319704 482.41638 
L 336.845822 480.782504 
L 338.465175 480.782504 
L 339.017943 478.310158 
L 340.715023 478.310158 
L 341.29364 475.099112 
L 341.878719 469.576639 
L 343.67273 469.576639 
L 344.283658 464.907503 
L 345.5249 460.223058 
L 346.155215 458.613458 
L 346.791991 452.451447 
L 348.084931 452.451447 
L 349.403718 443.083582 
L 350.072806 440.886792 
L 350.748355 436.149977 
L 351.430366 436.149977 
L 352.11884 431.695162 
L 352.813775 424.328695 
L 353.515173 424.328695 
L 354.223033 419.101887 
L 354.937355 411.41826 
L 355.658139 406.383368 
L 356.385386 403.807365 
L 357.119094 393.467983 
L 357.859265 391.148723 
L 358.605898 387.658041 
L 359.358992 377.410873 
L 360.118549 377.410873 
L 360.884568 372.634577 
L 361.65705 366.159128 
L 362.435993 362.49683 
L 363.221399 360.208188 
L 364.013146 355.463654 
L 365.614561 340.296342 
L 366.424027 335.918071 
L 367.239566 333.736589 
L 369.727503 333.736589 
L 370.572874 332.702761 
L 371.427649 330.763779 
L 372.292736 327.974357 
L 373.169052 327.187163 
L 374.958954 327.187163 
L 375.874197 324.370878 
L 376.803925 324.370878 
L 377.748708 326.552359 
L 380.676559 326.552359 
L 381.683711 330.945939 
L 382.706061 328.260473 
L 383.74349 330.71751 
L 384.795997 327.951052 
L 385.863582 330.316237 
L 386.946246 329.648139 
L 391.427683 329.648139 
L 392.585738 327.043543 
L 393.758872 327.043543 
L 394.947084 321.607237 
L 397.368742 321.607237 
L 401.114317 313.661627 
L 403.686759 313.661627 
L 404.995597 308.457783 
L 406.319513 308.457783 
L 407.658508 309.491611 
L 410.381733 309.491611 
L 411.765963 311.430593 
L 413.165271 311.656708 
L 414.579657 311.656708 
L 416.009122 309.214979 
L 417.453665 304.499918 
L 418.913286 304.499918 
L 420.387986 302.226584 
L 421.877764 302.226584 
L 423.38262 299.575695 
L 424.902555 299.575695 
L 426.437567 296.85185 
L 427.987659 296.85185 
L 429.552828 297.481242 
L 432.728402 297.481242 
L 434.338806 294.905239 
L 435.964289 292.091746 
L 437.60485 287.162363 
L 439.260489 285.042116 
L 442.617003 285.042116 
L 444.317877 285.729574 
L 446.03383 287.271625 
L 447.764861 284.636801 
L 449.51097 287.008231 
L 453.048423 282.415638 
L 454.839767 283.12629 
L 458.467691 278.153256 
L 460.30427 272.961454 
L 462.155927 276.115555 
L 464.022663 276.115555 
L 465.904477 280.049094 
L 467.801369 280.049094 
L 469.713339 284.745444 
L 471.640388 282.640506 
L 473.582516 285.290584 
L 475.539721 280.351891 
L 477.512005 280.898596 
L 479.499367 275.955049 
L 481.501807 273.482704 
L 483.519326 276.249162 
L 485.551923 274.69153 
L 487.599599 277.436134 
L 489.662352 278.797588 
L 491.740184 281.521432 
L 493.833095 283.618126 
L 495.941083 281.314176 
L 498.06415 281.657527 
L 500.202295 279.52967 
L 502.355519 276.996404 
L 504.523821 277.243514 
L 506.707201 280.744225 
L 508.905659 280.744225 
L 511.119196 284.935771 
L 513.347811 284.935771 
L 515.591505 289.805204 
L 517.850276 289.805204 
L 520.124126 290.090909 
L 522.413055 295.625646 
L 524.717061 296.561207 
L 527.036146 300.967948 
L 529.370309 303.658869 
L 531.719551 303.658869 
L 534.083871 308.353978 
L 536.463269 310.626287 
L 541.2673 315.764213 
L 543.691933 320.830229 
L 546.131645 323.363495 
L 548.586434 327.757075 
L 551.056302 330.12226 
L 553.541249 330.12226 
L 556.041273 332.563988 
L 558.556798 332.563988 
L 561.088852 334.867939 
L 563.63821 346.647939 
L 566.204808 353.850655 
L 568.787842 353.850655 
L 571.385868 356.231149 
L 573.9969 365.737501 
L 576.618508 373.165203 
L 579.247915 384.761499 
L 581.882102 389.674428 
L 581.882102 389.674428 
" style="fill:none;stroke:#000080;stroke-linecap:square;stroke-width:4.0;"/>
   </g>
   <g id="line2d_2">
    <path clip-path="url(#p5957a58318)" d="M 81 404.8 
L 583.2 404.8 
" style="fill:none;stroke:#808080;stroke-linecap:square;stroke-width:4.0;"/>
   </g>
   <g id="line2d_3">
    <path clip-path="url(#p5957a58318)" d="M 292.772351 504 
L 292.772351 57.6 
" style="fill:none;stroke:#000000;stroke-dasharray:6.000000,6.000000;stroke-dashoffset:0.0;stroke-width:3.0;"/>
   </g>
   <g id="line2d_4">
    <path clip-path="url(#p5957a58318)" d="M 372.292736 504 
L 372.292736 57.6 
" style="fill:none;stroke:#000000;stroke-dasharray:6.000000,6.000000;stroke-dashoffset:0.0;stroke-width:3.0;"/>
   </g>
   <g id="patch_3">
    <path d="M 81 504 
L 81 57.6 
" style="fill:none;stroke:#000000;stroke-linecap:square;stroke-linejoin:miter;"/>
   </g>
   <g id="patch_4">
    <path d="M 81 504 
L 583.2 504 
" style="fill:none;stroke:#000000;stroke-linecap:square;stroke-linejoin:miter;"/>
   </g>
   <g id="matplotlib.axis_1">
    <g id="text_1">
     <!-- Alongshore Direction of Continental Shelf -->
     <defs>
      <path d="M 64.40625 67.28125 
L 64.40625 56.890625 
Q 59.421875 61.53125 53.78125 63.8125 
Q 48.140625 66.109375 41.796875 66.109375 
Q 29.296875 66.109375 22.65625 58.46875 
Q 16.015625 50.828125 16.015625 36.375 
Q 16.015625 21.96875 22.65625 14.328125 
Q 29.296875 6.6875 41.796875 6.6875 
Q 48.140625 6.6875 53.78125 8.984375 
Q 59.421875 11.28125 64.40625 15.921875 
L 64.40625 5.609375 
Q 59.234375 2.09375 53.4375 0.328125 
Q 47.65625 -1.421875 41.21875 -1.421875 
Q 24.65625 -1.421875 15.125 8.703125 
Q 5.609375 18.84375 5.609375 36.375 
Q 5.609375 53.953125 15.125 64.078125 
Q 24.65625 74.21875 41.21875 74.21875 
Q 47.75 74.21875 53.53125 72.484375 
Q 59.328125 70.75 64.40625 67.28125 
" id="BitstreamVeraSans-Roman-43"/>
      <path d="M 37.109375 75.984375 
L 37.109375 68.5 
L 28.515625 68.5 
Q 23.6875 68.5 21.796875 66.546875 
Q 19.921875 64.59375 19.921875 59.515625 
L 19.921875 54.6875 
L 34.71875 54.6875 
L 34.71875 47.703125 
L 19.921875 47.703125 
L 19.921875 0 
L 10.890625 0 
L 10.890625 47.703125 
L 2.296875 47.703125 
L 2.296875 54.6875 
L 10.890625 54.6875 
L 10.890625 58.5 
Q 10.890625 67.625 15.140625 71.796875 
Q 19.390625 75.984375 28.609375 75.984375 
z
" id="BitstreamVeraSans-Roman-66"/>
      <path d="M 34.1875 63.1875 
L 20.796875 26.90625 
L 47.609375 26.90625 
z
M 28.609375 72.90625 
L 39.796875 72.90625 
L 67.578125 0 
L 57.328125 0 
L 50.6875 18.703125 
L 17.828125 18.703125 
L 11.1875 0 
L 0.78125 0 
z
" id="BitstreamVeraSans-Roman-41"/>
      <path d="M 54.890625 33.015625 
L 54.890625 0 
L 45.90625 0 
L 45.90625 32.71875 
Q 45.90625 40.484375 42.875 44.328125 
Q 39.84375 48.1875 33.796875 48.1875 
Q 26.515625 48.1875 22.3125 43.546875 
Q 18.109375 38.921875 18.109375 30.90625 
L 18.109375 0 
L 9.078125 0 
L 9.078125 54.6875 
L 18.109375 54.6875 
L 18.109375 46.1875 
Q 21.34375 51.125 25.703125 53.5625 
Q 30.078125 56 35.796875 56 
Q 45.21875 56 50.046875 50.171875 
Q 54.890625 44.34375 54.890625 33.015625 
" id="BitstreamVeraSans-Roman-6e"/>
      <path d="M 19.671875 64.796875 
L 19.671875 8.109375 
L 31.59375 8.109375 
Q 46.6875 8.109375 53.6875 14.9375 
Q 60.6875 21.78125 60.6875 36.53125 
Q 60.6875 51.171875 53.6875 57.984375 
Q 46.6875 64.796875 31.59375 64.796875 
z
M 9.8125 72.90625 
L 30.078125 72.90625 
Q 51.265625 72.90625 61.171875 64.09375 
Q 71.09375 55.28125 71.09375 36.53125 
Q 71.09375 17.671875 61.125 8.828125 
Q 51.171875 0 30.078125 0 
L 9.8125 0 
z
" id="BitstreamVeraSans-Roman-44"/>
      <path d="M 30.609375 48.390625 
Q 23.390625 48.390625 19.1875 42.75 
Q 14.984375 37.109375 14.984375 27.296875 
Q 14.984375 17.484375 19.15625 11.84375 
Q 23.34375 6.203125 30.609375 6.203125 
Q 37.796875 6.203125 41.984375 11.859375 
Q 46.1875 17.53125 46.1875 27.296875 
Q 46.1875 37.015625 41.984375 42.703125 
Q 37.796875 48.390625 30.609375 48.390625 
M 30.609375 56 
Q 42.328125 56 49.015625 48.375 
Q 55.71875 40.765625 55.71875 27.296875 
Q 55.71875 13.875 49.015625 6.21875 
Q 42.328125 -1.421875 30.609375 -1.421875 
Q 18.84375 -1.421875 12.171875 6.21875 
Q 5.515625 13.875 5.515625 27.296875 
Q 5.515625 40.765625 12.171875 48.375 
Q 18.84375 56 30.609375 56 
" id="BitstreamVeraSans-Roman-6f"/>
      <path d="M 9.421875 54.6875 
L 18.40625 54.6875 
L 18.40625 0 
L 9.421875 0 
z
M 9.421875 75.984375 
L 18.40625 75.984375 
L 18.40625 64.59375 
L 9.421875 64.59375 
z
" id="BitstreamVeraSans-Roman-69"/>
      <path d="M 34.28125 27.484375 
Q 23.390625 27.484375 19.1875 25 
Q 14.984375 22.515625 14.984375 16.5 
Q 14.984375 11.71875 18.140625 8.90625 
Q 21.296875 6.109375 26.703125 6.109375 
Q 34.1875 6.109375 38.703125 11.40625 
Q 43.21875 16.703125 43.21875 25.484375 
L 43.21875 27.484375 
z
M 52.203125 31.203125 
L 52.203125 0 
L 43.21875 0 
L 43.21875 8.296875 
Q 40.140625 3.328125 35.546875 0.953125 
Q 30.953125 -1.421875 24.3125 -1.421875 
Q 15.921875 -1.421875 10.953125 3.296875 
Q 6 8.015625 6 15.921875 
Q 6 25.140625 12.171875 29.828125 
Q 18.359375 34.515625 30.609375 34.515625 
L 43.21875 34.515625 
L 43.21875 35.40625 
Q 43.21875 41.609375 39.140625 45 
Q 35.0625 48.390625 27.6875 48.390625 
Q 23 48.390625 18.546875 47.265625 
Q 14.109375 46.140625 10.015625 43.890625 
L 10.015625 52.203125 
Q 14.9375 54.109375 19.578125 55.046875 
Q 24.21875 56 28.609375 56 
Q 40.484375 56 46.34375 49.84375 
Q 52.203125 43.703125 52.203125 31.203125 
" id="BitstreamVeraSans-Roman-61"/>
      <path d="M 53.515625 70.515625 
L 53.515625 60.890625 
Q 47.90625 63.578125 42.921875 64.890625 
Q 37.9375 66.21875 33.296875 66.21875 
Q 25.25 66.21875 20.875 63.09375 
Q 16.5 59.96875 16.5 54.203125 
Q 16.5 49.359375 19.40625 46.890625 
Q 22.3125 44.4375 30.421875 42.921875 
L 36.375 41.703125 
Q 47.40625 39.59375 52.65625 34.296875 
Q 57.90625 29 57.90625 20.125 
Q 57.90625 9.515625 50.796875 4.046875 
Q 43.703125 -1.421875 29.984375 -1.421875 
Q 24.8125 -1.421875 18.96875 -0.25 
Q 13.140625 0.921875 6.890625 3.21875 
L 6.890625 13.375 
Q 12.890625 10.015625 18.65625 8.296875 
Q 24.421875 6.59375 29.984375 6.59375 
Q 38.421875 6.59375 43.015625 9.90625 
Q 47.609375 13.234375 47.609375 19.390625 
Q 47.609375 24.75 44.3125 27.78125 
Q 41.015625 30.8125 33.5 32.328125 
L 27.484375 33.5 
Q 16.453125 35.6875 11.515625 40.375 
Q 6.59375 45.0625 6.59375 53.421875 
Q 6.59375 63.09375 13.40625 68.65625 
Q 20.21875 74.21875 32.171875 74.21875 
Q 37.3125 74.21875 42.625 73.28125 
Q 47.953125 72.359375 53.515625 70.515625 
" id="BitstreamVeraSans-Roman-53"/>
      <path d="M 45.40625 27.984375 
Q 45.40625 37.75 41.375 43.109375 
Q 37.359375 48.484375 30.078125 48.484375 
Q 22.859375 48.484375 18.828125 43.109375 
Q 14.796875 37.75 14.796875 27.984375 
Q 14.796875 18.265625 18.828125 12.890625 
Q 22.859375 7.515625 30.078125 7.515625 
Q 37.359375 7.515625 41.375 12.890625 
Q 45.40625 18.265625 45.40625 27.984375 
M 54.390625 6.78125 
Q 54.390625 -7.171875 48.1875 -13.984375 
Q 42 -20.796875 29.203125 -20.796875 
Q 24.46875 -20.796875 20.265625 -20.09375 
Q 16.0625 -19.390625 12.109375 -17.921875 
L 12.109375 -9.1875 
Q 16.0625 -11.328125 19.921875 -12.34375 
Q 23.78125 -13.375 27.78125 -13.375 
Q 36.625 -13.375 41.015625 -8.765625 
Q 45.40625 -4.15625 45.40625 5.171875 
L 45.40625 9.625 
Q 42.625 4.78125 38.28125 2.390625 
Q 33.9375 0 27.875 0 
Q 17.828125 0 11.671875 7.65625 
Q 5.515625 15.328125 5.515625 27.984375 
Q 5.515625 40.671875 11.671875 48.328125 
Q 17.828125 56 27.875 56 
Q 33.9375 56 38.28125 53.609375 
Q 42.625 51.21875 45.40625 46.390625 
L 45.40625 54.6875 
L 54.390625 54.6875 
z
" id="BitstreamVeraSans-Roman-67"/>
      <path d="M 9.421875 75.984375 
L 18.40625 75.984375 
L 18.40625 0 
L 9.421875 0 
z
" id="BitstreamVeraSans-Roman-6c"/>
      <path d="M 44.28125 53.078125 
L 44.28125 44.578125 
Q 40.484375 46.53125 36.375 47.5 
Q 32.28125 48.484375 27.875 48.484375 
Q 21.1875 48.484375 17.84375 46.4375 
Q 14.5 44.390625 14.5 40.28125 
Q 14.5 37.15625 16.890625 35.375 
Q 19.28125 33.59375 26.515625 31.984375 
L 29.59375 31.296875 
Q 39.15625 29.25 43.1875 25.515625 
Q 47.21875 21.78125 47.21875 15.09375 
Q 47.21875 7.46875 41.1875 3.015625 
Q 35.15625 -1.421875 24.609375 -1.421875 
Q 20.21875 -1.421875 15.453125 -0.5625 
Q 10.6875 0.296875 5.421875 2 
L 5.421875 11.28125 
Q 10.40625 8.6875 15.234375 7.390625 
Q 20.0625 6.109375 24.8125 6.109375 
Q 31.15625 6.109375 34.5625 8.28125 
Q 37.984375 10.453125 37.984375 14.40625 
Q 37.984375 18.0625 35.515625 20.015625 
Q 33.0625 21.96875 24.703125 23.78125 
L 21.578125 24.515625 
Q 13.234375 26.265625 9.515625 29.90625 
Q 5.8125 33.546875 5.8125 39.890625 
Q 5.8125 47.609375 11.28125 51.796875 
Q 16.75 56 26.8125 56 
Q 31.78125 56 36.171875 55.265625 
Q 40.578125 54.546875 44.28125 53.078125 
" id="BitstreamVeraSans-Roman-73"/>
      <path d="M 48.78125 52.59375 
L 48.78125 44.1875 
Q 44.96875 46.296875 41.140625 47.34375 
Q 37.3125 48.390625 33.40625 48.390625 
Q 24.65625 48.390625 19.8125 42.84375 
Q 14.984375 37.3125 14.984375 27.296875 
Q 14.984375 17.28125 19.8125 11.734375 
Q 24.65625 6.203125 33.40625 6.203125 
Q 37.3125 6.203125 41.140625 7.25 
Q 44.96875 8.296875 48.78125 10.40625 
L 48.78125 2.09375 
Q 45.015625 0.34375 40.984375 -0.53125 
Q 36.96875 -1.421875 32.421875 -1.421875 
Q 20.0625 -1.421875 12.78125 6.34375 
Q 5.515625 14.109375 5.515625 27.296875 
Q 5.515625 40.671875 12.859375 48.328125 
Q 20.21875 56 33.015625 56 
Q 37.15625 56 41.109375 55.140625 
Q 45.0625 54.296875 48.78125 52.59375 
" id="BitstreamVeraSans-Roman-63"/>
      <path d="M 18.3125 70.21875 
L 18.3125 54.6875 
L 36.8125 54.6875 
L 36.8125 47.703125 
L 18.3125 47.703125 
L 18.3125 18.015625 
Q 18.3125 11.328125 20.140625 9.421875 
Q 21.96875 7.515625 27.59375 7.515625 
L 36.8125 7.515625 
L 36.8125 0 
L 27.59375 0 
Q 17.1875 0 13.234375 3.875 
Q 9.28125 7.765625 9.28125 18.015625 
L 9.28125 47.703125 
L 2.6875 47.703125 
L 2.6875 54.6875 
L 9.28125 54.6875 
L 9.28125 70.21875 
z
" id="BitstreamVeraSans-Roman-74"/>
      <path d="M 54.890625 33.015625 
L 54.890625 0 
L 45.90625 0 
L 45.90625 32.71875 
Q 45.90625 40.484375 42.875 44.328125 
Q 39.84375 48.1875 33.796875 48.1875 
Q 26.515625 48.1875 22.3125 43.546875 
Q 18.109375 38.921875 18.109375 30.90625 
L 18.109375 0 
L 9.078125 0 
L 9.078125 75.984375 
L 18.109375 75.984375 
L 18.109375 46.1875 
Q 21.34375 51.125 25.703125 53.5625 
Q 30.078125 56 35.796875 56 
Q 45.21875 56 50.046875 50.171875 
Q 54.890625 44.34375 54.890625 33.015625 
" id="BitstreamVeraSans-Roman-68"/>
      <path d="M 56.203125 29.59375 
L 56.203125 25.203125 
L 14.890625 25.203125 
Q 15.484375 15.921875 20.484375 11.0625 
Q 25.484375 6.203125 34.421875 6.203125 
Q 39.59375 6.203125 44.453125 7.46875 
Q 49.3125 8.734375 54.109375 11.28125 
L 54.109375 2.78125 
Q 49.265625 0.734375 44.1875 -0.34375 
Q 39.109375 -1.421875 33.890625 -1.421875 
Q 20.796875 -1.421875 13.15625 6.1875 
Q 5.515625 13.8125 5.515625 26.8125 
Q 5.515625 40.234375 12.765625 48.109375 
Q 20.015625 56 32.328125 56 
Q 43.359375 56 49.78125 48.890625 
Q 56.203125 41.796875 56.203125 29.59375 
M 47.21875 32.234375 
Q 47.125 39.59375 43.09375 43.984375 
Q 39.0625 48.390625 32.421875 48.390625 
Q 24.90625 48.390625 20.390625 44.140625 
Q 15.875 39.890625 15.1875 32.171875 
z
" id="BitstreamVeraSans-Roman-65"/>
      <path id="BitstreamVeraSans-Roman-20"/>
      <path d="M 41.109375 46.296875 
Q 39.59375 47.171875 37.8125 47.578125 
Q 36.03125 48 33.890625 48 
Q 26.265625 48 22.1875 43.046875 
Q 18.109375 38.09375 18.109375 28.8125 
L 18.109375 0 
L 9.078125 0 
L 9.078125 54.6875 
L 18.109375 54.6875 
L 18.109375 46.1875 
Q 20.953125 51.171875 25.484375 53.578125 
Q 30.03125 56 36.53125 56 
Q 37.453125 56 38.578125 55.875 
Q 39.703125 55.765625 41.0625 55.515625 
z
" id="BitstreamVeraSans-Roman-72"/>
     </defs>
     <g transform="translate(166.48125 521.1575)scale(0.16 -0.16)">
      <use xlink:href="#BitstreamVeraSans-Roman-41"/>
      <use x="68.408203125" xlink:href="#BitstreamVeraSans-Roman-6c"/>
      <use x="96.19140625" xlink:href="#BitstreamVeraSans-Roman-6f"/>
      <use x="157.373046875" xlink:href="#BitstreamVeraSans-Roman-6e"/>
      <use x="220.751953125" xlink:href="#BitstreamVeraSans-Roman-67"/>
      <use x="284.228515625" xlink:href="#BitstreamVeraSans-Roman-73"/>
      <use x="336.328125" xlink:href="#BitstreamVeraSans-Roman-68"/>
      <use x="399.70703125" xlink:href="#BitstreamVeraSans-Roman-6f"/>
      <use x="460.888671875" xlink:href="#BitstreamVeraSans-Roman-72"/>
      <use x="501.970703125" xlink:href="#BitstreamVeraSans-Roman-65"/>
      <use x="563.494140625" xlink:href="#BitstreamVeraSans-Roman-20"/>
      <use x="595.28125" xlink:href="#BitstreamVeraSans-Roman-44"/>
      <use x="672.283203125" xlink:href="#BitstreamVeraSans-Roman-69"/>
      <use x="700.06640625" xlink:href="#BitstreamVeraSans-Roman-72"/>
      <use x="741.1484375" xlink:href="#BitstreamVeraSans-Roman-65"/>
      <use x="802.671875" xlink:href="#BitstreamVeraSans-Roman-63"/>
      <use x="857.65234375" xlink:href="#BitstreamVeraSans-Roman-74"/>
      <use x="896.861328125" xlink:href="#BitstreamVeraSans-Roman-69"/>
      <use x="924.64453125" xlink:href="#BitstreamVeraSans-Roman-6f"/>
      <use x="985.826171875" xlink:href="#BitstreamVeraSans-Roman-6e"/>
      <use x="1049.205078125" xlink:href="#BitstreamVeraSans-Roman-20"/>
      <use x="1080.9921875" xlink:href="#BitstreamVeraSans-Roman-6f"/>
      <use x="1142.173828125" xlink:href="#BitstreamVeraSans-Roman-66"/>
      <use x="1177.37890625" xlink:href="#BitstreamVeraSans-Roman-20"/>
      <use x="1209.166015625" xlink:href="#BitstreamVeraSans-Roman-43"/>
      <use x="1278.990234375" xlink:href="#BitstreamVeraSans-Roman-6f"/>
      <use x="1340.171875" xlink:href="#BitstreamVeraSans-Roman-6e"/>
      <use x="1403.55078125" xlink:href="#BitstreamVeraSans-Roman-74"/>
      <use x="1442.759765625" xlink:href="#BitstreamVeraSans-Roman-69"/>
      <use x="1470.54296875" xlink:href="#BitstreamVeraSans-Roman-6e"/>
      <use x="1533.921875" xlink:href="#BitstreamVeraSans-Roman-65"/>
      <use x="1595.4453125" xlink:href="#BitstreamVeraSans-Roman-6e"/>
      <use x="1658.82421875" xlink:href="#BitstreamVeraSans-Roman-74"/>
      <use x="1698.033203125" xlink:href="#BitstreamVeraSans-Roman-61"/>
      <use x="1759.3125" xlink:href="#BitstreamVeraSans-Roman-6c"/>
      <use x="1787.095703125" xlink:href="#BitstreamVeraSans-Roman-20"/>
      <use x="1818.8828125" xlink:href="#BitstreamVeraSans-Roman-53"/>
      <use x="1882.359375" xlink:href="#BitstreamVeraSans-Roman-68"/>
      <use x="1945.73828125" xlink:href="#BitstreamVeraSans-Roman-65"/>
      <use x="2007.26171875" xlink:href="#BitstreamVeraSans-Roman-6c"/>
      <use x="2035.044921875" xlink:href="#BitstreamVeraSans-Roman-66"/>
     </g>
    </g>
   </g>
   <g id="matplotlib.axis_2">
    <g id="text_2">
     <!-- Volume of Water over the Continental Shelf -->
     <defs>
      <path d="M 8.5 21.578125 
L 8.5 54.6875 
L 17.484375 54.6875 
L 17.484375 21.921875 
Q 17.484375 14.15625 20.5 10.265625 
Q 23.53125 6.390625 29.59375 6.390625 
Q 36.859375 6.390625 41.078125 11.03125 
Q 45.3125 15.671875 45.3125 23.6875 
L 45.3125 54.6875 
L 54.296875 54.6875 
L 54.296875 0 
L 45.3125 0 
L 45.3125 8.40625 
Q 42.046875 3.421875 37.71875 1 
Q 33.40625 -1.421875 27.6875 -1.421875 
Q 18.265625 -1.421875 13.375 4.4375 
Q 8.5 10.296875 8.5 21.578125 
" id="BitstreamVeraSans-Roman-75"/>
      <path d="M 52 44.1875 
Q 55.375 50.25 60.0625 53.125 
Q 64.75 56 71.09375 56 
Q 79.640625 56 84.28125 50.015625 
Q 88.921875 44.046875 88.921875 33.015625 
L 88.921875 0 
L 79.890625 0 
L 79.890625 32.71875 
Q 79.890625 40.578125 77.09375 44.375 
Q 74.3125 48.1875 68.609375 48.1875 
Q 61.625 48.1875 57.5625 43.546875 
Q 53.515625 38.921875 53.515625 30.90625 
L 53.515625 0 
L 44.484375 0 
L 44.484375 32.71875 
Q 44.484375 40.625 41.703125 44.40625 
Q 38.921875 48.1875 33.109375 48.1875 
Q 26.21875 48.1875 22.15625 43.53125 
Q 18.109375 38.875 18.109375 30.90625 
L 18.109375 0 
L 9.078125 0 
L 9.078125 54.6875 
L 18.109375 54.6875 
L 18.109375 46.1875 
Q 21.1875 51.21875 25.484375 53.609375 
Q 29.78125 56 35.6875 56 
Q 41.65625 56 45.828125 52.96875 
Q 50 49.953125 52 44.1875 
" id="BitstreamVeraSans-Roman-6d"/>
      <path d="M 3.328125 72.90625 
L 13.28125 72.90625 
L 28.609375 11.28125 
L 43.890625 72.90625 
L 54.984375 72.90625 
L 70.3125 11.28125 
L 85.59375 72.90625 
L 95.609375 72.90625 
L 77.296875 0 
L 64.890625 0 
L 49.515625 63.28125 
L 33.984375 0 
L 21.578125 0 
z
" id="BitstreamVeraSans-Roman-57"/>
      <path d="M 2.984375 54.6875 
L 12.5 54.6875 
L 29.59375 8.796875 
L 46.6875 54.6875 
L 56.203125 54.6875 
L 35.6875 0 
L 23.484375 0 
z
" id="BitstreamVeraSans-Roman-76"/>
      <path d="M 28.609375 0 
L 0.78125 72.90625 
L 11.078125 72.90625 
L 34.1875 11.53125 
L 57.328125 72.90625 
L 67.578125 72.90625 
L 39.796875 0 
z
" id="BitstreamVeraSans-Roman-56"/>
     </defs>
     <g transform="translate(72.6725 455.59875)rotate(-90.0)scale(0.16 -0.16)">
      <use xlink:href="#BitstreamVeraSans-Roman-56"/>
      <use x="68.298828125" xlink:href="#BitstreamVeraSans-Roman-6f"/>
      <use x="129.48046875" xlink:href="#BitstreamVeraSans-Roman-6c"/>
      <use x="157.263671875" xlink:href="#BitstreamVeraSans-Roman-75"/>
      <use x="220.642578125" xlink:href="#BitstreamVeraSans-Roman-6d"/>
      <use x="318.0546875" xlink:href="#BitstreamVeraSans-Roman-65"/>
      <use x="379.578125" xlink:href="#BitstreamVeraSans-Roman-20"/>
      <use x="411.365234375" xlink:href="#BitstreamVeraSans-Roman-6f"/>
      <use x="472.546875" xlink:href="#BitstreamVeraSans-Roman-66"/>
      <use x="507.751953125" xlink:href="#BitstreamVeraSans-Roman-20"/>
      <use x="539.5390625" xlink:href="#BitstreamVeraSans-Roman-57"/>
      <use x="638.322265625" xlink:href="#BitstreamVeraSans-Roman-61"/>
      <use x="699.6015625" xlink:href="#BitstreamVeraSans-Roman-74"/>
      <use x="738.810546875" xlink:href="#BitstreamVeraSans-Roman-65"/>
      <use x="800.333984375" xlink:href="#BitstreamVeraSans-Roman-72"/>
      <use x="841.447265625" xlink:href="#BitstreamVeraSans-Roman-20"/>
      <use x="873.234375" xlink:href="#BitstreamVeraSans-Roman-6f"/>
      <use x="934.416015625" xlink:href="#BitstreamVeraSans-Roman-76"/>
      <use x="993.595703125" xlink:href="#BitstreamVeraSans-Roman-65"/>
      <use x="1055.119140625" xlink:href="#BitstreamVeraSans-Roman-72"/>
      <use x="1096.232421875" xlink:href="#BitstreamVeraSans-Roman-20"/>
      <use x="1128.01953125" xlink:href="#BitstreamVeraSans-Roman-74"/>
      <use x="1167.228515625" xlink:href="#BitstreamVeraSans-Roman-68"/>
      <use x="1230.607421875" xlink:href="#BitstreamVeraSans-Roman-65"/>
      <use x="1292.130859375" xlink:href="#BitstreamVeraSans-Roman-20"/>
      <use x="1323.91796875" xlink:href="#BitstreamVeraSans-Roman-43"/>
      <use x="1393.7421875" xlink:href="#BitstreamVeraSans-Roman-6f"/>
      <use x="1454.923828125" xlink:href="#BitstreamVeraSans-Roman-6e"/>
      <use x="1518.302734375" xlink:href="#BitstreamVeraSans-Roman-74"/>
      <use x="1557.51171875" xlink:href="#BitstreamVeraSans-Roman-69"/>
      <use x="1585.294921875" xlink:href="#BitstreamVeraSans-Roman-6e"/>
      <use x="1648.673828125" xlink:href="#BitstreamVeraSans-Roman-65"/>
      <use x="1710.197265625" xlink:href="#BitstreamVeraSans-Roman-6e"/>
      <use x="1773.576171875" xlink:href="#BitstreamVeraSans-Roman-74"/>
      <use x="1812.78515625" xlink:href="#BitstreamVeraSans-Roman-61"/>
      <use x="1874.064453125" xlink:href="#BitstreamVeraSans-Roman-6c"/>
      <use x="1901.84765625" xlink:href="#BitstreamVeraSans-Roman-20"/>
      <use x="1933.634765625" xlink:href="#BitstreamVeraSans-Roman-53"/>
      <use x="1997.111328125" xlink:href="#BitstreamVeraSans-Roman-68"/>
      <use x="2060.490234375" xlink:href="#BitstreamVeraSans-Roman-65"/>
      <use x="2122.013671875" xlink:href="#BitstreamVeraSans-Roman-6c"/>
      <use x="2149.796875" xlink:href="#BitstreamVeraSans-Roman-66"/>
     </g>
    </g>
   </g>
   <g id="text_3">
    <!-- Canyon Upwelling Event: 8 Days After the Initial Forcing -->
    <defs>
     <path d="M 32.171875 -5.078125 
Q 28.375 -14.84375 24.75 -17.8125 
Q 21.140625 -20.796875 15.09375 -20.796875 
L 7.90625 -20.796875 
L 7.90625 -13.28125 
L 13.1875 -13.28125 
Q 16.890625 -13.28125 18.9375 -11.515625 
Q 21 -9.765625 23.484375 -3.21875 
L 25.09375 0.875 
L 2.984375 54.6875 
L 12.5 54.6875 
L 29.59375 11.921875 
L 46.6875 54.6875 
L 56.203125 54.6875 
z
" id="BitstreamVeraSans-Roman-79"/>
     <path d="M 4.203125 54.6875 
L 13.1875 54.6875 
L 24.421875 12.015625 
L 35.59375 54.6875 
L 46.1875 54.6875 
L 57.421875 12.015625 
L 68.609375 54.6875 
L 77.59375 54.6875 
L 63.28125 0 
L 52.6875 0 
L 40.921875 44.828125 
L 29.109375 0 
L 18.5 0 
z
" id="BitstreamVeraSans-Roman-77"/>
     <path d="M 11.71875 12.40625 
L 22.015625 12.40625 
L 22.015625 0 
L 11.71875 0 
z
M 11.71875 51.703125 
L 22.015625 51.703125 
L 22.015625 39.3125 
L 11.71875 39.3125 
z
" id="BitstreamVeraSans-Roman-3a"/>
     <path d="M 9.8125 72.90625 
L 55.90625 72.90625 
L 55.90625 64.59375 
L 19.671875 64.59375 
L 19.671875 43.015625 
L 54.390625 43.015625 
L 54.390625 34.71875 
L 19.671875 34.71875 
L 19.671875 8.296875 
L 56.78125 8.296875 
L 56.78125 0 
L 9.8125 0 
z
" id="BitstreamVeraSans-Roman-45"/>
     <path d="M 31.78125 34.625 
Q 24.75 34.625 20.71875 30.859375 
Q 16.703125 27.09375 16.703125 20.515625 
Q 16.703125 13.921875 20.71875 10.15625 
Q 24.75 6.390625 31.78125 6.390625 
Q 38.8125 6.390625 42.859375 10.171875 
Q 46.921875 13.96875 46.921875 20.515625 
Q 46.921875 27.09375 42.890625 30.859375 
Q 38.875 34.625 31.78125 34.625 
M 21.921875 38.8125 
Q 15.578125 40.375 12.03125 44.71875 
Q 8.5 49.078125 8.5 55.328125 
Q 8.5 64.0625 14.71875 69.140625 
Q 20.953125 74.21875 31.78125 74.21875 
Q 42.671875 74.21875 48.875 69.140625 
Q 55.078125 64.0625 55.078125 55.328125 
Q 55.078125 49.078125 51.53125 44.71875 
Q 48 40.375 41.703125 38.8125 
Q 48.828125 37.15625 52.796875 32.3125 
Q 56.78125 27.484375 56.78125 20.515625 
Q 56.78125 9.90625 50.3125 4.234375 
Q 43.84375 -1.421875 31.78125 -1.421875 
Q 19.734375 -1.421875 13.25 4.234375 
Q 6.78125 9.90625 6.78125 20.515625 
Q 6.78125 27.484375 10.78125 32.3125 
Q 14.796875 37.15625 21.921875 38.8125 
M 18.3125 54.390625 
Q 18.3125 48.734375 21.84375 45.5625 
Q 25.390625 42.390625 31.78125 42.390625 
Q 38.140625 42.390625 41.71875 45.5625 
Q 45.3125 48.734375 45.3125 54.390625 
Q 45.3125 60.0625 41.71875 63.234375 
Q 38.140625 66.40625 31.78125 66.40625 
Q 25.390625 66.40625 21.84375 63.234375 
Q 18.3125 60.0625 18.3125 54.390625 
" id="BitstreamVeraSans-Roman-38"/>
     <path d="M 9.8125 72.90625 
L 19.671875 72.90625 
L 19.671875 0 
L 9.8125 0 
z
" id="BitstreamVeraSans-Roman-49"/>
     <path d="M 8.6875 72.90625 
L 18.609375 72.90625 
L 18.609375 28.609375 
Q 18.609375 16.890625 22.84375 11.734375 
Q 27.09375 6.59375 36.625 6.59375 
Q 46.09375 6.59375 50.34375 11.734375 
Q 54.59375 16.890625 54.59375 28.609375 
L 54.59375 72.90625 
L 64.5 72.90625 
L 64.5 27.390625 
Q 64.5 13.140625 57.4375 5.859375 
Q 50.390625 -1.421875 36.625 -1.421875 
Q 22.796875 -1.421875 15.734375 5.859375 
Q 8.6875 13.140625 8.6875 27.390625 
z
" id="BitstreamVeraSans-Roman-55"/>
     <path d="M 18.109375 8.203125 
L 18.109375 -20.796875 
L 9.078125 -20.796875 
L 9.078125 54.6875 
L 18.109375 54.6875 
L 18.109375 46.390625 
Q 20.953125 51.265625 25.265625 53.625 
Q 29.59375 56 35.59375 56 
Q 45.5625 56 51.78125 48.09375 
Q 58.015625 40.1875 58.015625 27.296875 
Q 58.015625 14.40625 51.78125 6.484375 
Q 45.5625 -1.421875 35.59375 -1.421875 
Q 29.59375 -1.421875 25.265625 0.953125 
Q 20.953125 3.328125 18.109375 8.203125 
M 48.6875 27.296875 
Q 48.6875 37.203125 44.609375 42.84375 
Q 40.53125 48.484375 33.40625 48.484375 
Q 26.265625 48.484375 22.1875 42.84375 
Q 18.109375 37.203125 18.109375 27.296875 
Q 18.109375 17.390625 22.1875 11.75 
Q 26.265625 6.109375 33.40625 6.109375 
Q 40.53125 6.109375 44.609375 11.75 
Q 48.6875 17.390625 48.6875 27.296875 
" id="BitstreamVeraSans-Roman-70"/>
     <path d="M 9.8125 72.90625 
L 51.703125 72.90625 
L 51.703125 64.59375 
L 19.671875 64.59375 
L 19.671875 43.109375 
L 48.578125 43.109375 
L 48.578125 34.8125 
L 19.671875 34.8125 
L 19.671875 0 
L 9.8125 0 
z
" id="BitstreamVeraSans-Roman-46"/>
    </defs>
    <g transform="translate(79.0565625 52.6)scale(0.18 -0.18)">
     <use xlink:href="#BitstreamVeraSans-Roman-43"/>
     <use x="69.82421875" xlink:href="#BitstreamVeraSans-Roman-61"/>
     <use x="131.103515625" xlink:href="#BitstreamVeraSans-Roman-6e"/>
     <use x="194.482421875" xlink:href="#BitstreamVeraSans-Roman-79"/>
     <use x="253.662109375" xlink:href="#BitstreamVeraSans-Roman-6f"/>
     <use x="314.84375" xlink:href="#BitstreamVeraSans-Roman-6e"/>
     <use x="378.22265625" xlink:href="#BitstreamVeraSans-Roman-20"/>
     <use x="410.009765625" xlink:href="#BitstreamVeraSans-Roman-55"/>
     <use x="483.203125" xlink:href="#BitstreamVeraSans-Roman-70"/>
     <use x="546.6796875" xlink:href="#BitstreamVeraSans-Roman-77"/>
     <use x="628.466796875" xlink:href="#BitstreamVeraSans-Roman-65"/>
     <use x="689.990234375" xlink:href="#BitstreamVeraSans-Roman-6c"/>
     <use x="717.7734375" xlink:href="#BitstreamVeraSans-Roman-6c"/>
     <use x="745.556640625" xlink:href="#BitstreamVeraSans-Roman-69"/>
     <use x="773.33984375" xlink:href="#BitstreamVeraSans-Roman-6e"/>
     <use x="836.71875" xlink:href="#BitstreamVeraSans-Roman-67"/>
     <use x="900.1953125" xlink:href="#BitstreamVeraSans-Roman-20"/>
     <use x="931.982421875" xlink:href="#BitstreamVeraSans-Roman-45"/>
     <use x="995.166015625" xlink:href="#BitstreamVeraSans-Roman-76"/>
     <use x="1054.345703125" xlink:href="#BitstreamVeraSans-Roman-65"/>
     <use x="1115.869140625" xlink:href="#BitstreamVeraSans-Roman-6e"/>
     <use x="1179.248046875" xlink:href="#BitstreamVeraSans-Roman-74"/>
     <use x="1218.45703125" xlink:href="#BitstreamVeraSans-Roman-3a"/>
     <use x="1252.1484375" xlink:href="#BitstreamVeraSans-Roman-20"/>
     <use x="1283.935546875" xlink:href="#BitstreamVeraSans-Roman-38"/>
     <use x="1347.55859375" xlink:href="#BitstreamVeraSans-Roman-20"/>
     <use x="1379.345703125" xlink:href="#BitstreamVeraSans-Roman-44"/>
     <use x="1456.34765625" xlink:href="#BitstreamVeraSans-Roman-61"/>
     <use x="1517.626953125" xlink:href="#BitstreamVeraSans-Roman-79"/>
     <use x="1576.806640625" xlink:href="#BitstreamVeraSans-Roman-73"/>
     <use x="1628.90625" xlink:href="#BitstreamVeraSans-Roman-20"/>
     <use x="1660.693359375" xlink:href="#BitstreamVeraSans-Roman-41"/>
     <use x="1729.0546875" xlink:href="#BitstreamVeraSans-Roman-66"/>
     <use x="1764.244140625" xlink:href="#BitstreamVeraSans-Roman-74"/>
     <use x="1803.453125" xlink:href="#BitstreamVeraSans-Roman-65"/>
     <use x="1864.9765625" xlink:href="#BitstreamVeraSans-Roman-72"/>
     <use x="1906.08984375" xlink:href="#BitstreamVeraSans-Roman-20"/>
     <use x="1937.876953125" xlink:href="#BitstreamVeraSans-Roman-74"/>
     <use x="1977.0859375" xlink:href="#BitstreamVeraSans-Roman-68"/>
     <use x="2040.46484375" xlink:href="#BitstreamVeraSans-Roman-65"/>
     <use x="2101.98828125" xlink:href="#BitstreamVeraSans-Roman-20"/>
     <use x="2133.775390625" xlink:href="#BitstreamVeraSans-Roman-49"/>
     <use x="2163.267578125" xlink:href="#BitstreamVeraSans-Roman-6e"/>
     <use x="2226.646484375" xlink:href="#BitstreamVeraSans-Roman-69"/>
     <use x="2254.4296875" xlink:href="#BitstreamVeraSans-Roman-74"/>
     <use x="2293.638671875" xlink:href="#BitstreamVeraSans-Roman-69"/>
     <use x="2321.421875" xlink:href="#BitstreamVeraSans-Roman-61"/>
     <use x="2382.701171875" xlink:href="#BitstreamVeraSans-Roman-6c"/>
     <use x="2410.484375" xlink:href="#BitstreamVeraSans-Roman-20"/>
     <use x="2442.271484375" xlink:href="#BitstreamVeraSans-Roman-46"/>
     <use x="2499.744140625" xlink:href="#BitstreamVeraSans-Roman-6f"/>
     <use x="2560.92578125" xlink:href="#BitstreamVeraSans-Roman-72"/>
     <use x="2602.0078125" xlink:href="#BitstreamVeraSans-Roman-63"/>
     <use x="2656.98828125" xlink:href="#BitstreamVeraSans-Roman-69"/>
     <use x="2684.771484375" xlink:href="#BitstreamVeraSans-Roman-6e"/>
     <use x="2748.150390625" xlink:href="#BitstreamVeraSans-Roman-67"/>
    </g>
   </g>
   <g id="legend_1">
    <g id="patch_5">
     <path d="M 87 102.4275 
L 272.92125 102.4275 
L 272.92125 63.6 
L 87 63.6 
z
" style="fill:#ffffff;stroke:#000000;stroke-linejoin:miter;"/>
    </g>
    <g id="line2d_5">
     <path d="M 95.4 73.318125 
L 112.2 73.318125 
" style="fill:none;stroke:#808080;stroke-linecap:square;stroke-width:4.0;"/>
    </g>
    <g id="line2d_6"/>
    <g id="text_4">
     <!-- Volume = 0 m$^3$ -->
     <defs>
      <path d="M 9.515625 7.71875 
Q 11.859375 4.296875 15.8125 2.640625 
Q 19.78125 0.984375 24.3125 0.984375 
Q 30.125 0.984375 32.5625 5.9375 
Q 35.015625 10.890625 35.015625 17.1875 
Q 35.015625 20.015625 34.5 22.84375 
Q 33.984375 25.6875 32.765625 28.125 
Q 31.546875 30.5625 29.421875 32.03125 
Q 27.296875 33.5 24.21875 33.5 
L 17.578125 33.5 
Q 16.703125 33.5 16.703125 34.421875 
L 16.703125 35.296875 
Q 16.703125 36.078125 17.578125 36.078125 
L 23.09375 36.53125 
Q 26.609375 36.53125 28.921875 39.15625 
Q 31.25 41.796875 32.328125 45.578125 
Q 33.40625 49.359375 33.40625 52.78125 
Q 33.40625 57.5625 31.15625 60.640625 
Q 28.90625 63.71875 24.3125 63.71875 
Q 20.515625 63.71875 17.046875 62.28125 
Q 13.578125 60.84375 11.53125 57.90625 
Q 11.71875 57.953125 11.859375 57.984375 
Q 12.015625 58.015625 12.203125 58.015625 
Q 14.453125 58.015625 15.96875 56.453125 
Q 17.484375 54.890625 17.484375 52.6875 
Q 17.484375 50.53125 15.96875 48.96875 
Q 14.453125 47.40625 12.203125 47.40625 
Q 10.015625 47.40625 8.453125 48.96875 
Q 6.890625 50.53125 6.890625 52.6875 
Q 6.890625 56.984375 9.46875 60.15625 
Q 12.0625 63.328125 16.140625 64.96875 
Q 20.21875 66.609375 24.3125 66.609375 
Q 27.34375 66.609375 30.703125 65.703125 
Q 34.078125 64.796875 36.8125 63.109375 
Q 39.546875 61.421875 41.28125 58.78125 
Q 43.015625 56.15625 43.015625 52.78125 
Q 43.015625 48.578125 41.140625 45.015625 
Q 39.265625 41.453125 35.984375 38.859375 
Q 32.71875 36.28125 28.8125 35.015625 
Q 33.15625 34.1875 37.0625 31.734375 
Q 40.96875 29.296875 43.328125 25.484375 
Q 45.703125 21.6875 45.703125 17.28125 
Q 45.703125 11.765625 42.671875 7.296875 
Q 39.65625 2.828125 34.71875 0.3125 
Q 29.78125 -2.203125 24.3125 -2.203125 
Q 19.625 -2.203125 14.90625 -0.40625 
Q 10.203125 1.375 7.203125 4.9375 
Q 4.203125 8.5 4.203125 13.484375 
Q 4.203125 15.96875 5.859375 17.625 
Q 7.515625 19.28125 10.015625 19.28125 
Q 11.625 19.28125 12.96875 18.53125 
Q 14.3125 17.78125 15.0625 16.40625 
Q 15.828125 15.046875 15.828125 13.484375 
Q 15.828125 11.03125 14.109375 9.375 
Q 12.40625 7.71875 10.015625 7.71875 
z
" id="Cmr10-33"/>
      <path d="M 10.59375 45.40625 
L 73.1875 45.40625 
L 73.1875 37.203125 
L 10.59375 37.203125 
z
M 10.59375 25.484375 
L 73.1875 25.484375 
L 73.1875 17.1875 
L 10.59375 17.1875 
z
" id="BitstreamVeraSans-Roman-3d"/>
      <path d="M 31.78125 66.40625 
Q 24.171875 66.40625 20.328125 58.90625 
Q 16.5 51.421875 16.5 36.375 
Q 16.5 21.390625 20.328125 13.890625 
Q 24.171875 6.390625 31.78125 6.390625 
Q 39.453125 6.390625 43.28125 13.890625 
Q 47.125 21.390625 47.125 36.375 
Q 47.125 51.421875 43.28125 58.90625 
Q 39.453125 66.40625 31.78125 66.40625 
M 31.78125 74.21875 
Q 44.046875 74.21875 50.515625 64.515625 
Q 56.984375 54.828125 56.984375 36.375 
Q 56.984375 17.96875 50.515625 8.265625 
Q 44.046875 -1.421875 31.78125 -1.421875 
Q 19.53125 -1.421875 13.0625 8.265625 
Q 6.59375 17.96875 6.59375 36.375 
Q 6.59375 54.828125 13.0625 64.515625 
Q 19.53125 74.21875 31.78125 74.21875 
" id="BitstreamVeraSans-Roman-30"/>
     </defs>
     <g transform="translate(125.4 77.518125)scale(0.12 -0.12)">
      <use transform="translate(0.0 0.109375)" xlink:href="#BitstreamVeraSans-Roman-56"/>
      <use transform="translate(68.408203125 0.109375)" xlink:href="#BitstreamVeraSans-Roman-6f"/>
      <use transform="translate(129.58984375 0.109375)" xlink:href="#BitstreamVeraSans-Roman-6c"/>
      <use transform="translate(157.373046875 0.109375)" xlink:href="#BitstreamVeraSans-Roman-75"/>
      <use transform="translate(220.751953125 0.109375)" xlink:href="#BitstreamVeraSans-Roman-6d"/>
      <use transform="translate(318.1640625 0.109375)" xlink:href="#BitstreamVeraSans-Roman-65"/>
      <use transform="translate(379.6875 0.109375)" xlink:href="#BitstreamVeraSans-Roman-20"/>
      <use transform="translate(411.474609375 0.109375)" xlink:href="#BitstreamVeraSans-Roman-3d"/>
      <use transform="translate(495.263671875 0.109375)" xlink:href="#BitstreamVeraSans-Roman-20"/>
      <use transform="translate(527.05078125 0.109375)" xlink:href="#BitstreamVeraSans-Roman-30"/>
      <use transform="translate(590.673828125 0.109375)" xlink:href="#BitstreamVeraSans-Roman-20"/>
      <use transform="translate(622.4609375 0.109375)" xlink:href="#BitstreamVeraSans-Roman-6d"/>
      <use transform="translate(724.3371875 38.3734375)scale(0.7)" xlink:href="#Cmr10-33"/>
     </g>
    </g>
    <g id="line2d_7">
     <path d="M 95.4 90.931875 
L 112.2 90.931875 
" style="fill:none;stroke:#000000;stroke-dasharray:6.000000,6.000000;stroke-dashoffset:0.0;stroke-width:3.0;"/>
    </g>
    <g id="line2d_8"/>
    <g id="text_5">
     <!-- Location of Canyon Rim -->
     <defs>
      <path d="M 44.390625 34.1875 
Q 47.5625 33.109375 50.5625 29.59375 
Q 53.5625 26.078125 56.59375 19.921875 
L 66.609375 0 
L 56 0 
L 46.6875 18.703125 
Q 43.0625 26.03125 39.671875 28.421875 
Q 36.28125 30.8125 30.421875 30.8125 
L 19.671875 30.8125 
L 19.671875 0 
L 9.8125 0 
L 9.8125 72.90625 
L 32.078125 72.90625 
Q 44.578125 72.90625 50.734375 67.671875 
Q 56.890625 62.453125 56.890625 51.90625 
Q 56.890625 45.015625 53.6875 40.46875 
Q 50.484375 35.9375 44.390625 34.1875 
M 19.671875 64.796875 
L 19.671875 38.921875 
L 32.078125 38.921875 
Q 39.203125 38.921875 42.84375 42.21875 
Q 46.484375 45.515625 46.484375 51.90625 
Q 46.484375 58.296875 42.84375 61.546875 
Q 39.203125 64.796875 32.078125 64.796875 
z
" id="BitstreamVeraSans-Roman-52"/>
      <path d="M 9.8125 72.90625 
L 19.671875 72.90625 
L 19.671875 8.296875 
L 55.171875 8.296875 
L 55.171875 0 
L 9.8125 0 
z
" id="BitstreamVeraSans-Roman-4c"/>
     </defs>
     <g transform="translate(125.4 95.131875)scale(0.12 -0.12)">
      <use xlink:href="#BitstreamVeraSans-Roman-4c"/>
      <use x="55.697265625" xlink:href="#BitstreamVeraSans-Roman-6f"/>
      <use x="116.87890625" xlink:href="#BitstreamVeraSans-Roman-63"/>
      <use x="171.859375" xlink:href="#BitstreamVeraSans-Roman-61"/>
      <use x="233.138671875" xlink:href="#BitstreamVeraSans-Roman-74"/>
      <use x="272.34765625" xlink:href="#BitstreamVeraSans-Roman-69"/>
      <use x="300.130859375" xlink:href="#BitstreamVeraSans-Roman-6f"/>
      <use x="361.3125" xlink:href="#BitstreamVeraSans-Roman-6e"/>
      <use x="424.69140625" xlink:href="#BitstreamVeraSans-Roman-20"/>
      <use x="456.478515625" xlink:href="#BitstreamVeraSans-Roman-6f"/>
      <use x="517.66015625" xlink:href="#BitstreamVeraSans-Roman-66"/>
      <use x="552.865234375" xlink:href="#BitstreamVeraSans-Roman-20"/>
      <use x="584.65234375" xlink:href="#BitstreamVeraSans-Roman-43"/>
      <use x="654.4765625" xlink:href="#BitstreamVeraSans-Roman-61"/>
      <use x="715.755859375" xlink:href="#BitstreamVeraSans-Roman-6e"/>
      <use x="779.134765625" xlink:href="#BitstreamVeraSans-Roman-79"/>
      <use x="838.314453125" xlink:href="#BitstreamVeraSans-Roman-6f"/>
      <use x="899.49609375" xlink:href="#BitstreamVeraSans-Roman-6e"/>
      <use x="962.875" xlink:href="#BitstreamVeraSans-Roman-20"/>
      <use x="994.662109375" xlink:href="#BitstreamVeraSans-Roman-52"/>
      <use x="1064.14453125" xlink:href="#BitstreamVeraSans-Roman-69"/>
      <use x="1091.927734375" xlink:href="#BitstreamVeraSans-Roman-6d"/>
     </g>
    </g>
   </g>
  </g>
 </g>
 <defs>
  <clipPath id="p5957a58318">
   <rect height="446.4" width="502.2" x="81.0" y="57.6"/>
  </clipPath>
 </defs>
</svg>
